<mxfile host="app.diagrams.net" modified="2023-05-16T21:35:48.862Z" agent="Mozilla/5.0 (Windows NT 10.0; Win64; x64) AppleWebKit/537.36 (KHTML, like Gecko) Chrome/113.0.0.0 Safari/537.36" etag="kJAm2C4b6xQztdd_zQ_L" version="21.3.2" type="google">
  <diagram name="Page-1" id="UisnulohwWbhqmStZ9Vy">
    <mxGraphModel grid="0" page="0" gridSize="10" guides="0" tooltips="1" connect="1" arrows="1" fold="1" pageScale="1" pageWidth="850" pageHeight="1100" background="#cae2de" math="0" shadow="0">
      <root>
        <mxCell id="0" />
        <mxCell id="1" parent="0" />
        <mxCell id="TU8KSX9ye_OXuuE1Akk1-221" value="&lt;u&gt;NYC_Units&lt;/u&gt;" style="shape=table;startSize=30;container=1;collapsible=1;childLayout=tableLayout;fixedRows=1;rowLines=0;fontStyle=1;align=center;resizeLast=1;html=1;fontSize=12;" vertex="1" parent="1">
          <mxGeometry x="523.75" y="1054.6" width="186.25" height="150" as="geometry" />
        </mxCell>
        <mxCell id="TU8KSX9ye_OXuuE1Akk1-222" value="" style="shape=tableRow;horizontal=0;startSize=0;swimlaneHead=0;swimlaneBody=0;fillColor=none;collapsible=0;dropTarget=0;points=[[0,0.5],[1,0.5]];portConstraint=eastwest;top=0;left=0;right=0;bottom=1;fontSize=12;fontStyle=1" vertex="1" parent="TU8KSX9ye_OXuuE1Akk1-221">
          <mxGeometry y="30" width="186.25" height="30" as="geometry" />
        </mxCell>
        <mxCell id="TU8KSX9ye_OXuuE1Akk1-223" value="PK" style="shape=partialRectangle;connectable=0;fillColor=none;top=0;left=0;bottom=0;right=0;fontStyle=1;overflow=hidden;whiteSpace=wrap;html=1;fontSize=12;" vertex="1" parent="TU8KSX9ye_OXuuE1Akk1-222">
          <mxGeometry width="30" height="30" as="geometry">
            <mxRectangle width="30" height="30" as="alternateBounds" />
          </mxGeometry>
        </mxCell>
        <mxCell id="TU8KSX9ye_OXuuE1Akk1-224" value="UnitsID" style="shape=partialRectangle;connectable=0;fillColor=none;top=0;left=0;bottom=0;right=0;align=left;spacingLeft=6;fontStyle=5;overflow=hidden;whiteSpace=wrap;html=1;fontSize=12;" vertex="1" parent="TU8KSX9ye_OXuuE1Akk1-222">
          <mxGeometry x="30" width="156.25" height="30" as="geometry">
            <mxRectangle width="156.25" height="30" as="alternateBounds" />
          </mxGeometry>
        </mxCell>
        <mxCell id="TU8KSX9ye_OXuuE1Akk1-225" value="" style="shape=tableRow;horizontal=0;startSize=0;swimlaneHead=0;swimlaneBody=0;fillColor=none;collapsible=0;dropTarget=0;points=[[0,0.5],[1,0.5]];portConstraint=eastwest;top=0;left=0;right=0;bottom=0;fontSize=12;fontStyle=1" vertex="1" parent="TU8KSX9ye_OXuuE1Akk1-221">
          <mxGeometry y="60" width="186.25" height="30" as="geometry" />
        </mxCell>
        <mxCell id="TU8KSX9ye_OXuuE1Akk1-226" value="" style="shape=partialRectangle;connectable=0;fillColor=none;top=0;left=0;bottom=0;right=0;editable=1;overflow=hidden;whiteSpace=wrap;html=1;fontSize=12;fontStyle=1" vertex="1" parent="TU8KSX9ye_OXuuE1Akk1-225">
          <mxGeometry width="30" height="30" as="geometry">
            <mxRectangle width="30" height="30" as="alternateBounds" />
          </mxGeometry>
        </mxCell>
        <mxCell id="TU8KSX9ye_OXuuE1Akk1-227" value="Residential Units" style="shape=partialRectangle;connectable=0;fillColor=none;top=0;left=0;bottom=0;right=0;align=left;spacingLeft=6;overflow=hidden;whiteSpace=wrap;html=1;fontSize=12;fontStyle=1" vertex="1" parent="TU8KSX9ye_OXuuE1Akk1-225">
          <mxGeometry x="30" width="156.25" height="30" as="geometry">
            <mxRectangle width="156.25" height="30" as="alternateBounds" />
          </mxGeometry>
        </mxCell>
        <mxCell id="TU8KSX9ye_OXuuE1Akk1-228" value="" style="shape=tableRow;horizontal=0;startSize=0;swimlaneHead=0;swimlaneBody=0;fillColor=none;collapsible=0;dropTarget=0;points=[[0,0.5],[1,0.5]];portConstraint=eastwest;top=0;left=0;right=0;bottom=0;fontSize=12;fontStyle=1" vertex="1" parent="TU8KSX9ye_OXuuE1Akk1-221">
          <mxGeometry y="90" width="186.25" height="30" as="geometry" />
        </mxCell>
        <mxCell id="TU8KSX9ye_OXuuE1Akk1-229" value="" style="shape=partialRectangle;connectable=0;fillColor=none;top=0;left=0;bottom=0;right=0;editable=1;overflow=hidden;whiteSpace=wrap;html=1;fontSize=12;fontStyle=1" vertex="1" parent="TU8KSX9ye_OXuuE1Akk1-228">
          <mxGeometry width="30" height="30" as="geometry">
            <mxRectangle width="30" height="30" as="alternateBounds" />
          </mxGeometry>
        </mxCell>
        <mxCell id="TU8KSX9ye_OXuuE1Akk1-230" value="Commercial Units" style="shape=partialRectangle;connectable=0;fillColor=none;top=0;left=0;bottom=0;right=0;align=left;spacingLeft=6;overflow=hidden;whiteSpace=wrap;html=1;fontSize=12;fontStyle=1" vertex="1" parent="TU8KSX9ye_OXuuE1Akk1-228">
          <mxGeometry x="30" width="156.25" height="30" as="geometry">
            <mxRectangle width="156.25" height="30" as="alternateBounds" />
          </mxGeometry>
        </mxCell>
        <mxCell id="TU8KSX9ye_OXuuE1Akk1-231" value="" style="shape=tableRow;horizontal=0;startSize=0;swimlaneHead=0;swimlaneBody=0;fillColor=none;collapsible=0;dropTarget=0;points=[[0,0.5],[1,0.5]];portConstraint=eastwest;top=0;left=0;right=0;bottom=0;fontSize=12;fontStyle=1" vertex="1" parent="TU8KSX9ye_OXuuE1Akk1-221">
          <mxGeometry y="120" width="186.25" height="30" as="geometry" />
        </mxCell>
        <mxCell id="TU8KSX9ye_OXuuE1Akk1-232" value="" style="shape=partialRectangle;connectable=0;fillColor=none;top=0;left=0;bottom=0;right=0;editable=1;overflow=hidden;whiteSpace=wrap;html=1;fontSize=12;fontStyle=1" vertex="1" parent="TU8KSX9ye_OXuuE1Akk1-231">
          <mxGeometry width="30" height="30" as="geometry">
            <mxRectangle width="30" height="30" as="alternateBounds" />
          </mxGeometry>
        </mxCell>
        <mxCell id="TU8KSX9ye_OXuuE1Akk1-233" value="Total Units" style="shape=partialRectangle;connectable=0;fillColor=none;top=0;left=0;bottom=0;right=0;align=left;spacingLeft=6;overflow=hidden;whiteSpace=wrap;html=1;fontSize=12;fontStyle=1" vertex="1" parent="TU8KSX9ye_OXuuE1Akk1-231">
          <mxGeometry x="30" width="156.25" height="30" as="geometry">
            <mxRectangle width="156.25" height="30" as="alternateBounds" />
          </mxGeometry>
        </mxCell>
        <mxCell id="TU8KSX9ye_OXuuE1Akk1-234" value="&lt;u&gt;NYC_BuildingClass&lt;/u&gt;" style="shape=table;startSize=30;container=1;collapsible=1;childLayout=tableLayout;fixedRows=1;rowLines=0;fontStyle=1;align=center;resizeLast=1;html=1;fontSize=12;" vertex="1" parent="1">
          <mxGeometry x="523.75" y="660" width="186.25" height="140" as="geometry" />
        </mxCell>
        <mxCell id="TU8KSX9ye_OXuuE1Akk1-235" value="" style="shape=tableRow;horizontal=0;startSize=0;swimlaneHead=0;swimlaneBody=0;fillColor=none;collapsible=0;dropTarget=0;points=[[0,0.5],[1,0.5]];portConstraint=eastwest;top=0;left=0;right=0;bottom=1;fontSize=12;fontStyle=1" vertex="1" parent="TU8KSX9ye_OXuuE1Akk1-234">
          <mxGeometry y="30" width="186.25" height="30" as="geometry" />
        </mxCell>
        <mxCell id="TU8KSX9ye_OXuuE1Akk1-236" value="PK" style="shape=partialRectangle;connectable=0;fillColor=none;top=0;left=0;bottom=0;right=0;fontStyle=1;overflow=hidden;whiteSpace=wrap;html=1;fontSize=12;" vertex="1" parent="TU8KSX9ye_OXuuE1Akk1-235">
          <mxGeometry width="30" height="30" as="geometry">
            <mxRectangle width="30" height="30" as="alternateBounds" />
          </mxGeometry>
        </mxCell>
        <mxCell id="TU8KSX9ye_OXuuE1Akk1-237" value="BuildingClassID" style="shape=partialRectangle;connectable=0;fillColor=none;top=0;left=0;bottom=0;right=0;align=left;spacingLeft=6;fontStyle=5;overflow=hidden;whiteSpace=wrap;html=1;fontSize=12;" vertex="1" parent="TU8KSX9ye_OXuuE1Akk1-235">
          <mxGeometry x="30" width="156.25" height="30" as="geometry">
            <mxRectangle width="156.25" height="30" as="alternateBounds" />
          </mxGeometry>
        </mxCell>
        <mxCell id="TU8KSX9ye_OXuuE1Akk1-238" value="" style="shape=tableRow;horizontal=0;startSize=0;swimlaneHead=0;swimlaneBody=0;fillColor=none;collapsible=0;dropTarget=0;points=[[0,0.5],[1,0.5]];portConstraint=eastwest;top=0;left=0;right=0;bottom=0;fontSize=12;fontStyle=1" vertex="1" parent="TU8KSX9ye_OXuuE1Akk1-234">
          <mxGeometry y="60" width="186.25" height="30" as="geometry" />
        </mxCell>
        <mxCell id="TU8KSX9ye_OXuuE1Akk1-239" value="" style="shape=partialRectangle;connectable=0;fillColor=none;top=0;left=0;bottom=0;right=0;editable=1;overflow=hidden;whiteSpace=wrap;html=1;fontSize=12;fontStyle=1" vertex="1" parent="TU8KSX9ye_OXuuE1Akk1-238">
          <mxGeometry width="30" height="30" as="geometry">
            <mxRectangle width="30" height="30" as="alternateBounds" />
          </mxGeometry>
        </mxCell>
        <mxCell id="TU8KSX9ye_OXuuE1Akk1-240" value="Building class category" style="shape=partialRectangle;connectable=0;fillColor=none;top=0;left=0;bottom=0;right=0;align=left;spacingLeft=6;overflow=hidden;whiteSpace=wrap;html=1;fontSize=12;fontStyle=1" vertex="1" parent="TU8KSX9ye_OXuuE1Akk1-238">
          <mxGeometry x="30" width="156.25" height="30" as="geometry">
            <mxRectangle width="156.25" height="30" as="alternateBounds" />
          </mxGeometry>
        </mxCell>
        <mxCell id="TU8KSX9ye_OXuuE1Akk1-241" value="" style="shape=tableRow;horizontal=0;startSize=0;swimlaneHead=0;swimlaneBody=0;fillColor=none;collapsible=0;dropTarget=0;points=[[0,0.5],[1,0.5]];portConstraint=eastwest;top=0;left=0;right=0;bottom=0;fontSize=12;fontStyle=1" vertex="1" parent="TU8KSX9ye_OXuuE1Akk1-234">
          <mxGeometry y="90" width="186.25" height="30" as="geometry" />
        </mxCell>
        <mxCell id="TU8KSX9ye_OXuuE1Akk1-242" value="" style="shape=partialRectangle;connectable=0;fillColor=none;top=0;left=0;bottom=0;right=0;editable=1;overflow=hidden;whiteSpace=wrap;html=1;fontSize=12;fontStyle=1" vertex="1" parent="TU8KSX9ye_OXuuE1Akk1-241">
          <mxGeometry width="30" height="30" as="geometry">
            <mxRectangle width="30" height="30" as="alternateBounds" />
          </mxGeometry>
        </mxCell>
        <mxCell id="TU8KSX9ye_OXuuE1Akk1-243" value="" style="shape=partialRectangle;connectable=0;fillColor=none;top=0;left=0;bottom=0;right=0;align=left;spacingLeft=6;overflow=hidden;whiteSpace=wrap;html=1;fontSize=12;fontStyle=1" vertex="1" parent="TU8KSX9ye_OXuuE1Akk1-241">
          <mxGeometry x="30" width="156.25" height="30" as="geometry">
            <mxRectangle width="156.25" height="30" as="alternateBounds" />
          </mxGeometry>
        </mxCell>
        <mxCell id="TU8KSX9ye_OXuuE1Akk1-244" value="" style="shape=tableRow;horizontal=0;startSize=0;swimlaneHead=0;swimlaneBody=0;fillColor=none;collapsible=0;dropTarget=0;points=[[0,0.5],[1,0.5]];portConstraint=eastwest;top=0;left=0;right=0;bottom=0;fontSize=12;fontStyle=1" vertex="1" parent="TU8KSX9ye_OXuuE1Akk1-234">
          <mxGeometry y="120" width="186.25" height="20" as="geometry" />
        </mxCell>
        <mxCell id="TU8KSX9ye_OXuuE1Akk1-245" value="" style="shape=partialRectangle;connectable=0;fillColor=none;top=0;left=0;bottom=0;right=0;editable=1;overflow=hidden;whiteSpace=wrap;html=1;fontSize=12;fontStyle=1" vertex="1" parent="TU8KSX9ye_OXuuE1Akk1-244">
          <mxGeometry width="30" height="20" as="geometry">
            <mxRectangle width="30" height="20" as="alternateBounds" />
          </mxGeometry>
        </mxCell>
        <mxCell id="TU8KSX9ye_OXuuE1Akk1-246" value="" style="shape=partialRectangle;connectable=0;fillColor=none;top=0;left=0;bottom=0;right=0;align=left;spacingLeft=6;overflow=hidden;whiteSpace=wrap;html=1;fontSize=12;fontStyle=1" vertex="1" parent="TU8KSX9ye_OXuuE1Akk1-244">
          <mxGeometry x="30" width="156.25" height="20" as="geometry">
            <mxRectangle width="156.25" height="20" as="alternateBounds" />
          </mxGeometry>
        </mxCell>
        <mxCell id="TU8KSX9ye_OXuuE1Akk1-247" value="&lt;u&gt;NYC_Location&lt;/u&gt;" style="shape=table;startSize=30;container=1;collapsible=1;childLayout=tableLayout;fixedRows=1;rowLines=0;fontStyle=1;align=center;resizeLast=1;html=1;fontSize=12;" vertex="1" parent="1">
          <mxGeometry x="-180" y="1059" width="190" height="210" as="geometry" />
        </mxCell>
        <mxCell id="TU8KSX9ye_OXuuE1Akk1-248" value="" style="shape=tableRow;horizontal=0;startSize=0;swimlaneHead=0;swimlaneBody=0;fillColor=none;collapsible=0;dropTarget=0;points=[[0,0.5],[1,0.5]];portConstraint=eastwest;top=0;left=0;right=0;bottom=1;fontSize=12;fontStyle=1" vertex="1" parent="TU8KSX9ye_OXuuE1Akk1-247">
          <mxGeometry y="30" width="190" height="30" as="geometry" />
        </mxCell>
        <mxCell id="TU8KSX9ye_OXuuE1Akk1-249" value="PK" style="shape=partialRectangle;connectable=0;fillColor=none;top=0;left=0;bottom=0;right=0;fontStyle=1;overflow=hidden;whiteSpace=wrap;html=1;fontSize=12;" vertex="1" parent="TU8KSX9ye_OXuuE1Akk1-248">
          <mxGeometry width="30" height="30" as="geometry">
            <mxRectangle width="30" height="30" as="alternateBounds" />
          </mxGeometry>
        </mxCell>
        <mxCell id="TU8KSX9ye_OXuuE1Akk1-250" value="LocationID" style="shape=partialRectangle;connectable=0;fillColor=none;top=0;left=0;bottom=0;right=0;align=left;spacingLeft=6;fontStyle=5;overflow=hidden;whiteSpace=wrap;html=1;fontSize=12;" vertex="1" parent="TU8KSX9ye_OXuuE1Akk1-248">
          <mxGeometry x="30" width="160" height="30" as="geometry">
            <mxRectangle width="160" height="30" as="alternateBounds" />
          </mxGeometry>
        </mxCell>
        <mxCell id="TU8KSX9ye_OXuuE1Akk1-251" value="" style="shape=tableRow;horizontal=0;startSize=0;swimlaneHead=0;swimlaneBody=0;fillColor=none;collapsible=0;dropTarget=0;points=[[0,0.5],[1,0.5]];portConstraint=eastwest;top=0;left=0;right=0;bottom=0;fontSize=12;fontStyle=1" vertex="1" parent="TU8KSX9ye_OXuuE1Akk1-247">
          <mxGeometry y="60" width="190" height="30" as="geometry" />
        </mxCell>
        <mxCell id="TU8KSX9ye_OXuuE1Akk1-252" value="" style="shape=partialRectangle;connectable=0;fillColor=none;top=0;left=0;bottom=0;right=0;editable=1;overflow=hidden;whiteSpace=wrap;html=1;fontSize=12;fontStyle=1" vertex="1" parent="TU8KSX9ye_OXuuE1Akk1-251">
          <mxGeometry width="30" height="30" as="geometry">
            <mxRectangle width="30" height="30" as="alternateBounds" />
          </mxGeometry>
        </mxCell>
        <mxCell id="TU8KSX9ye_OXuuE1Akk1-253" value="Borough" style="shape=partialRectangle;connectable=0;fillColor=none;top=0;left=0;bottom=0;right=0;align=left;spacingLeft=6;overflow=hidden;whiteSpace=wrap;html=1;fontSize=12;fontStyle=1" vertex="1" parent="TU8KSX9ye_OXuuE1Akk1-251">
          <mxGeometry x="30" width="160" height="30" as="geometry">
            <mxRectangle width="160" height="30" as="alternateBounds" />
          </mxGeometry>
        </mxCell>
        <mxCell id="TU8KSX9ye_OXuuE1Akk1-254" value="" style="shape=tableRow;horizontal=0;startSize=0;swimlaneHead=0;swimlaneBody=0;fillColor=none;collapsible=0;dropTarget=0;points=[[0,0.5],[1,0.5]];portConstraint=eastwest;top=0;left=0;right=0;bottom=0;fontSize=12;fontStyle=1" vertex="1" parent="TU8KSX9ye_OXuuE1Akk1-247">
          <mxGeometry y="90" width="190" height="30" as="geometry" />
        </mxCell>
        <mxCell id="TU8KSX9ye_OXuuE1Akk1-255" value="" style="shape=partialRectangle;connectable=0;fillColor=none;top=0;left=0;bottom=0;right=0;editable=1;overflow=hidden;whiteSpace=wrap;html=1;fontSize=12;fontStyle=1" vertex="1" parent="TU8KSX9ye_OXuuE1Akk1-254">
          <mxGeometry width="30" height="30" as="geometry">
            <mxRectangle width="30" height="30" as="alternateBounds" />
          </mxGeometry>
        </mxCell>
        <mxCell id="TU8KSX9ye_OXuuE1Akk1-256" value="Neighborhood" style="shape=partialRectangle;connectable=0;fillColor=none;top=0;left=0;bottom=0;right=0;align=left;spacingLeft=6;overflow=hidden;whiteSpace=wrap;html=1;fontSize=12;fontStyle=1" vertex="1" parent="TU8KSX9ye_OXuuE1Akk1-254">
          <mxGeometry x="30" width="160" height="30" as="geometry">
            <mxRectangle width="160" height="30" as="alternateBounds" />
          </mxGeometry>
        </mxCell>
        <mxCell id="TU8KSX9ye_OXuuE1Akk1-257" value="Zip Code" style="text;html=1;align=center;verticalAlign=middle;resizable=0;points=[];autosize=1;strokeColor=none;fillColor=none;fontSize=12;fontStyle=1" vertex="1" parent="1">
          <mxGeometry x="-150" y="1209" width="70" height="30" as="geometry" />
        </mxCell>
        <mxCell id="TU8KSX9ye_OXuuE1Akk1-258" value="Lot" style="text;html=1;align=center;verticalAlign=middle;resizable=0;points=[];autosize=1;strokeColor=none;fillColor=none;fontSize=12;fontStyle=1" vertex="1" parent="1">
          <mxGeometry x="-150" y="1239.0000000000002" width="40" height="30" as="geometry" />
        </mxCell>
        <mxCell id="TU8KSX9ye_OXuuE1Akk1-260" value="Block" style="text;html=1;align=center;verticalAlign=middle;resizable=0;points=[];autosize=1;strokeColor=none;fillColor=none;fontSize=12;fontStyle=1" vertex="1" parent="1">
          <mxGeometry x="-155" y="1179" width="60" height="30" as="geometry" />
        </mxCell>
        <mxCell id="TU8KSX9ye_OXuuE1Akk1-263" value="&lt;u&gt;NYC_Tax&lt;/u&gt;" style="shape=table;startSize=30;container=1;collapsible=1;childLayout=tableLayout;fixedRows=1;rowLines=0;fontStyle=1;align=center;resizeLast=1;html=1;fontSize=12;" vertex="1" parent="1">
          <mxGeometry x="517.5" y="1404.2" width="192.5" height="150" as="geometry" />
        </mxCell>
        <mxCell id="TU8KSX9ye_OXuuE1Akk1-264" value="" style="shape=tableRow;horizontal=0;startSize=0;swimlaneHead=0;swimlaneBody=0;fillColor=none;collapsible=0;dropTarget=0;points=[[0,0.5],[1,0.5]];portConstraint=eastwest;top=0;left=0;right=0;bottom=1;fontSize=12;fontStyle=1" vertex="1" parent="TU8KSX9ye_OXuuE1Akk1-263">
          <mxGeometry y="30" width="192.5" height="30" as="geometry" />
        </mxCell>
        <mxCell id="TU8KSX9ye_OXuuE1Akk1-265" value="PK" style="shape=partialRectangle;connectable=0;fillColor=none;top=0;left=0;bottom=0;right=0;fontStyle=1;overflow=hidden;whiteSpace=wrap;html=1;fontSize=12;" vertex="1" parent="TU8KSX9ye_OXuuE1Akk1-264">
          <mxGeometry width="30" height="30" as="geometry">
            <mxRectangle width="30" height="30" as="alternateBounds" />
          </mxGeometry>
        </mxCell>
        <mxCell id="TU8KSX9ye_OXuuE1Akk1-266" value="TaxID" style="shape=partialRectangle;connectable=0;fillColor=none;top=0;left=0;bottom=0;right=0;align=left;spacingLeft=6;fontStyle=5;overflow=hidden;whiteSpace=wrap;html=1;fontSize=12;" vertex="1" parent="TU8KSX9ye_OXuuE1Akk1-264">
          <mxGeometry x="30" width="162.5" height="30" as="geometry">
            <mxRectangle width="162.5" height="30" as="alternateBounds" />
          </mxGeometry>
        </mxCell>
        <mxCell id="TU8KSX9ye_OXuuE1Akk1-267" value="" style="shape=tableRow;horizontal=0;startSize=0;swimlaneHead=0;swimlaneBody=0;fillColor=none;collapsible=0;dropTarget=0;points=[[0,0.5],[1,0.5]];portConstraint=eastwest;top=0;left=0;right=0;bottom=0;fontSize=12;fontStyle=1" vertex="1" parent="TU8KSX9ye_OXuuE1Akk1-263">
          <mxGeometry y="60" width="192.5" height="30" as="geometry" />
        </mxCell>
        <mxCell id="TU8KSX9ye_OXuuE1Akk1-268" value="" style="shape=partialRectangle;connectable=0;fillColor=none;top=0;left=0;bottom=0;right=0;editable=1;overflow=hidden;whiteSpace=wrap;html=1;fontSize=12;fontStyle=1" vertex="1" parent="TU8KSX9ye_OXuuE1Akk1-267">
          <mxGeometry width="30" height="30" as="geometry">
            <mxRectangle width="30" height="30" as="alternateBounds" />
          </mxGeometry>
        </mxCell>
        <mxCell id="TU8KSX9ye_OXuuE1Akk1-269" value="Tax class at present" style="shape=partialRectangle;connectable=0;fillColor=none;top=0;left=0;bottom=0;right=0;align=left;spacingLeft=6;overflow=hidden;whiteSpace=wrap;html=1;fontSize=12;fontStyle=1" vertex="1" parent="TU8KSX9ye_OXuuE1Akk1-267">
          <mxGeometry x="30" width="162.5" height="30" as="geometry">
            <mxRectangle width="162.5" height="30" as="alternateBounds" />
          </mxGeometry>
        </mxCell>
        <mxCell id="TU8KSX9ye_OXuuE1Akk1-270" value="" style="shape=tableRow;horizontal=0;startSize=0;swimlaneHead=0;swimlaneBody=0;fillColor=none;collapsible=0;dropTarget=0;points=[[0,0.5],[1,0.5]];portConstraint=eastwest;top=0;left=0;right=0;bottom=0;fontSize=12;fontStyle=1" vertex="1" parent="TU8KSX9ye_OXuuE1Akk1-263">
          <mxGeometry y="90" width="192.5" height="30" as="geometry" />
        </mxCell>
        <mxCell id="TU8KSX9ye_OXuuE1Akk1-271" value="" style="shape=partialRectangle;connectable=0;fillColor=none;top=0;left=0;bottom=0;right=0;editable=1;overflow=hidden;whiteSpace=wrap;html=1;fontSize=12;fontStyle=1" vertex="1" parent="TU8KSX9ye_OXuuE1Akk1-270">
          <mxGeometry width="30" height="30" as="geometry">
            <mxRectangle width="30" height="30" as="alternateBounds" />
          </mxGeometry>
        </mxCell>
        <mxCell id="TU8KSX9ye_OXuuE1Akk1-272" value="Tax class at sale" style="shape=partialRectangle;connectable=0;fillColor=none;top=0;left=0;bottom=0;right=0;align=left;spacingLeft=6;overflow=hidden;whiteSpace=wrap;html=1;fontSize=12;fontStyle=1" vertex="1" parent="TU8KSX9ye_OXuuE1Akk1-270">
          <mxGeometry x="30" width="162.5" height="30" as="geometry">
            <mxRectangle width="162.5" height="30" as="alternateBounds" />
          </mxGeometry>
        </mxCell>
        <mxCell id="TU8KSX9ye_OXuuE1Akk1-273" value="" style="shape=tableRow;horizontal=0;startSize=0;swimlaneHead=0;swimlaneBody=0;fillColor=none;collapsible=0;dropTarget=0;points=[[0,0.5],[1,0.5]];portConstraint=eastwest;top=0;left=0;right=0;bottom=0;fontSize=12;fontStyle=1" vertex="1" parent="TU8KSX9ye_OXuuE1Akk1-263">
          <mxGeometry y="120" width="192.5" height="30" as="geometry" />
        </mxCell>
        <mxCell id="TU8KSX9ye_OXuuE1Akk1-274" value="" style="shape=partialRectangle;connectable=0;fillColor=none;top=0;left=0;bottom=0;right=0;editable=1;overflow=hidden;whiteSpace=wrap;html=1;fontSize=12;fontStyle=1" vertex="1" parent="TU8KSX9ye_OXuuE1Akk1-273">
          <mxGeometry width="30" height="30" as="geometry">
            <mxRectangle width="30" height="30" as="alternateBounds" />
          </mxGeometry>
        </mxCell>
        <mxCell id="TU8KSX9ye_OXuuE1Akk1-275" value="" style="shape=partialRectangle;connectable=0;fillColor=none;top=0;left=0;bottom=0;right=0;align=left;spacingLeft=6;overflow=hidden;whiteSpace=wrap;html=1;fontSize=12;fontStyle=1" vertex="1" parent="TU8KSX9ye_OXuuE1Akk1-273">
          <mxGeometry x="30" width="162.5" height="30" as="geometry">
            <mxRectangle width="162.5" height="30" as="alternateBounds" />
          </mxGeometry>
        </mxCell>
        <mxCell id="TU8KSX9ye_OXuuE1Akk1-276" value="&lt;u&gt;NYC_Main&lt;/u&gt;" style="shape=table;startSize=30;container=1;collapsible=1;childLayout=tableLayout;fixedRows=1;rowLines=0;fontStyle=1;align=center;resizeLast=1;html=1;fontSize=12;" vertex="1" parent="1">
          <mxGeometry x="175" y="1164.2" width="220" height="340" as="geometry" />
        </mxCell>
        <mxCell id="TU8KSX9ye_OXuuE1Akk1-277" value="" style="shape=tableRow;horizontal=0;startSize=0;swimlaneHead=0;swimlaneBody=0;fillColor=none;collapsible=0;dropTarget=0;points=[[0,0.5],[1,0.5]];portConstraint=eastwest;top=0;left=0;right=0;bottom=1;fontSize=12;fontStyle=1" vertex="1" parent="TU8KSX9ye_OXuuE1Akk1-276">
          <mxGeometry y="30" width="220" height="30" as="geometry" />
        </mxCell>
        <mxCell id="TU8KSX9ye_OXuuE1Akk1-278" value="PK" style="shape=partialRectangle;connectable=0;fillColor=none;top=0;left=0;bottom=0;right=0;fontStyle=1;overflow=hidden;whiteSpace=wrap;html=1;fontSize=12;" vertex="1" parent="TU8KSX9ye_OXuuE1Akk1-277">
          <mxGeometry width="30" height="30" as="geometry">
            <mxRectangle width="30" height="30" as="alternateBounds" />
          </mxGeometry>
        </mxCell>
        <mxCell id="TU8KSX9ye_OXuuE1Akk1-279" value="MainID" style="shape=partialRectangle;connectable=0;fillColor=none;top=0;left=0;bottom=0;right=0;align=left;spacingLeft=6;fontStyle=5;overflow=hidden;whiteSpace=wrap;html=1;fontSize=12;" vertex="1" parent="TU8KSX9ye_OXuuE1Akk1-277">
          <mxGeometry x="30" width="190" height="30" as="geometry">
            <mxRectangle width="190" height="30" as="alternateBounds" />
          </mxGeometry>
        </mxCell>
        <mxCell id="TU8KSX9ye_OXuuE1Akk1-280" value="" style="shape=tableRow;horizontal=0;startSize=0;swimlaneHead=0;swimlaneBody=0;fillColor=none;collapsible=0;dropTarget=0;points=[[0,0.5],[1,0.5]];portConstraint=eastwest;top=0;left=0;right=0;bottom=0;fontSize=12;fontStyle=1" vertex="1" parent="TU8KSX9ye_OXuuE1Akk1-276">
          <mxGeometry y="60" width="220" height="30" as="geometry" />
        </mxCell>
        <mxCell id="TU8KSX9ye_OXuuE1Akk1-281" value="" style="shape=partialRectangle;connectable=0;fillColor=none;top=0;left=0;bottom=0;right=0;editable=1;overflow=hidden;whiteSpace=wrap;html=1;fontSize=12;fontStyle=1" vertex="1" parent="TU8KSX9ye_OXuuE1Akk1-280">
          <mxGeometry width="30" height="30" as="geometry">
            <mxRectangle width="30" height="30" as="alternateBounds" />
          </mxGeometry>
        </mxCell>
        <mxCell id="TU8KSX9ye_OXuuE1Akk1-282" value="Gross Square Feet" style="shape=partialRectangle;connectable=0;fillColor=none;top=0;left=0;bottom=0;right=0;align=left;spacingLeft=6;overflow=hidden;whiteSpace=wrap;html=1;fontSize=12;fontStyle=1" vertex="1" parent="TU8KSX9ye_OXuuE1Akk1-280">
          <mxGeometry x="30" width="190" height="30" as="geometry">
            <mxRectangle width="190" height="30" as="alternateBounds" />
          </mxGeometry>
        </mxCell>
        <mxCell id="TU8KSX9ye_OXuuE1Akk1-283" value="" style="shape=tableRow;horizontal=0;startSize=0;swimlaneHead=0;swimlaneBody=0;fillColor=none;collapsible=0;dropTarget=0;points=[[0,0.5],[1,0.5]];portConstraint=eastwest;top=0;left=0;right=0;bottom=0;fontSize=12;fontStyle=1" vertex="1" parent="TU8KSX9ye_OXuuE1Akk1-276">
          <mxGeometry y="90" width="220" height="30" as="geometry" />
        </mxCell>
        <mxCell id="TU8KSX9ye_OXuuE1Akk1-284" value="" style="shape=partialRectangle;connectable=0;fillColor=none;top=0;left=0;bottom=0;right=0;editable=1;overflow=hidden;whiteSpace=wrap;html=1;fontSize=12;fontStyle=1" vertex="1" parent="TU8KSX9ye_OXuuE1Akk1-283">
          <mxGeometry width="30" height="30" as="geometry">
            <mxRectangle width="30" height="30" as="alternateBounds" />
          </mxGeometry>
        </mxCell>
        <mxCell id="TU8KSX9ye_OXuuE1Akk1-285" value="Land Square Feet" style="shape=partialRectangle;connectable=0;fillColor=none;top=0;left=0;bottom=0;right=0;align=left;spacingLeft=6;overflow=hidden;whiteSpace=wrap;html=1;fontSize=12;fontStyle=1" vertex="1" parent="TU8KSX9ye_OXuuE1Akk1-283">
          <mxGeometry x="30" width="190" height="30" as="geometry">
            <mxRectangle width="190" height="30" as="alternateBounds" />
          </mxGeometry>
        </mxCell>
        <mxCell id="TU8KSX9ye_OXuuE1Akk1-286" value="" style="shape=tableRow;horizontal=0;startSize=0;swimlaneHead=0;swimlaneBody=0;fillColor=none;collapsible=0;dropTarget=0;points=[[0,0.5],[1,0.5]];portConstraint=eastwest;top=0;left=0;right=0;bottom=0;fontSize=12;fontStyle=1" vertex="1" parent="TU8KSX9ye_OXuuE1Akk1-276">
          <mxGeometry y="120" width="220" height="30" as="geometry" />
        </mxCell>
        <mxCell id="TU8KSX9ye_OXuuE1Akk1-287" value="" style="shape=partialRectangle;connectable=0;fillColor=none;top=0;left=0;bottom=0;right=0;editable=1;overflow=hidden;whiteSpace=wrap;html=1;fontSize=12;fontStyle=1" vertex="1" parent="TU8KSX9ye_OXuuE1Akk1-286">
          <mxGeometry width="30" height="30" as="geometry">
            <mxRectangle width="30" height="30" as="alternateBounds" />
          </mxGeometry>
        </mxCell>
        <mxCell id="TU8KSX9ye_OXuuE1Akk1-288" value="Year Built" style="shape=partialRectangle;connectable=0;fillColor=none;top=0;left=0;bottom=0;right=0;align=left;spacingLeft=6;overflow=hidden;whiteSpace=wrap;html=1;fontSize=12;fontStyle=1" vertex="1" parent="TU8KSX9ye_OXuuE1Akk1-286">
          <mxGeometry x="30" width="190" height="30" as="geometry">
            <mxRectangle width="190" height="30" as="alternateBounds" />
          </mxGeometry>
        </mxCell>
        <mxCell id="TU8KSX9ye_OXuuE1Akk1-291" value="FK" style="text;html=1;align=center;verticalAlign=middle;resizable=0;points=[];autosize=1;strokeColor=none;fillColor=none;fontSize=12;fontStyle=1" vertex="1" parent="1">
          <mxGeometry x="170" y="1374.1999999999998" width="40" height="30" as="geometry" />
        </mxCell>
        <mxCell id="TU8KSX9ye_OXuuE1Akk1-292" value="&lt;span style=&quot;color: rgb(0, 0, 0); font-family: Helvetica; font-size: 12px; font-style: normal; font-variant-ligatures: normal; font-variant-caps: normal; letter-spacing: normal; orphans: 2; text-align: center; text-indent: 0px; text-transform: none; widows: 2; word-spacing: 0px; -webkit-text-stroke-width: 0px; text-decoration-thickness: initial; text-decoration-style: initial; text-decoration-color: initial; float: none; display: inline !important; background-color: rgb(202, 226, 222);&quot;&gt;FK&lt;/span&gt;" style="text;whiteSpace=wrap;html=1;fontSize=12;fontStyle=1" vertex="1" parent="1">
          <mxGeometry x="180" y="1434.1999999999998" width="50" height="40" as="geometry" />
        </mxCell>
        <mxCell id="TU8KSX9ye_OXuuE1Akk1-293" value="&lt;span style=&quot;color: rgb(0, 0, 0); font-family: Helvetica; font-size: 12px; font-style: normal; font-variant-ligatures: normal; font-variant-caps: normal; letter-spacing: normal; orphans: 2; text-align: center; text-indent: 0px; text-transform: none; widows: 2; word-spacing: 0px; -webkit-text-stroke-width: 0px; text-decoration-thickness: initial; text-decoration-style: initial; text-decoration-color: initial; float: none; display: inline !important; background-color: rgb(202, 226, 222);&quot;&gt;FK&lt;/span&gt;" style="text;whiteSpace=wrap;html=1;fontSize=12;fontStyle=1" vertex="1" parent="1">
          <mxGeometry x="180" y="1404.1999999999998" width="50" height="40" as="geometry" />
        </mxCell>
        <mxCell id="TU8KSX9ye_OXuuE1Akk1-294" value="&lt;span style=&quot;color: rgb(0, 0, 0); font-family: Helvetica; font-size: 12px; font-style: normal; font-variant-ligatures: normal; font-variant-caps: normal; letter-spacing: normal; orphans: 2; text-align: center; text-indent: 0px; text-transform: none; widows: 2; word-spacing: 0px; -webkit-text-stroke-width: 0px; text-decoration-thickness: initial; text-decoration-style: initial; text-decoration-color: initial; float: none; display: inline !important; background-color: rgb(202, 226, 222);&quot;&gt;FK&lt;/span&gt;" style="text;whiteSpace=wrap;html=1;fontSize=12;fontStyle=1" vertex="1" parent="1">
          <mxGeometry x="180" y="1464.1999999999998" width="50" height="40" as="geometry" />
        </mxCell>
        <mxCell id="TU8KSX9ye_OXuuE1Akk1-295" value="UnitsID" style="text;html=1;align=center;verticalAlign=middle;resizable=0;points=[];autosize=1;strokeColor=none;fillColor=none;fontSize=12;fontStyle=1" vertex="1" parent="1">
          <mxGeometry x="200" y="1464.1999999999998" width="70" height="30" as="geometry" />
        </mxCell>
        <mxCell id="TU8KSX9ye_OXuuE1Akk1-296" value="&lt;span style=&quot;color: rgb(0, 0, 0); font-family: Helvetica; font-size: 12px; font-style: normal; font-variant-ligatures: normal; font-variant-caps: normal; letter-spacing: normal; orphans: 2; text-align: center; text-indent: 0px; text-transform: none; widows: 2; word-spacing: 0px; -webkit-text-stroke-width: 0px; text-decoration-thickness: initial; text-decoration-style: initial; text-decoration-color: initial; float: none; display: inline !important; background-color: rgb(202, 226, 222);&quot;&gt;BuildingClassID&lt;/span&gt;" style="text;whiteSpace=wrap;html=1;fontSize=12;fontStyle=1" vertex="1" parent="1">
          <mxGeometry x="215" y="1374.2" width="175" height="125.8" as="geometry" />
        </mxCell>
        <mxCell id="TU8KSX9ye_OXuuE1Akk1-297" value="LocationID" style="text;html=1;align=center;verticalAlign=middle;resizable=0;points=[];autosize=1;strokeColor=none;fillColor=none;fontSize=12;fontStyle=1" vertex="1" parent="1">
          <mxGeometry x="200" y="1404.1999999999998" width="90" height="30" as="geometry" />
        </mxCell>
        <mxCell id="TU8KSX9ye_OXuuE1Akk1-298" value="TaxID" style="text;html=1;align=center;verticalAlign=middle;resizable=0;points=[];autosize=1;strokeColor=none;fillColor=none;fontSize=12;fontStyle=1" vertex="1" parent="1">
          <mxGeometry x="200" y="1434.1999999999998" width="60" height="30" as="geometry" />
        </mxCell>
        <mxCell id="TU8KSX9ye_OXuuE1Akk1-299" value="Sale Date" style="text;html=1;align=center;verticalAlign=middle;resizable=0;points=[];autosize=1;strokeColor=none;fillColor=none;fontSize=12;fontStyle=1" vertex="1" parent="1">
          <mxGeometry x="200" y="1344.1999999999998" width="80" height="30" as="geometry" />
        </mxCell>
        <mxCell id="TU8KSX9ye_OXuuE1Akk1-300" value="Sale Price" style="text;html=1;align=center;verticalAlign=middle;resizable=0;points=[];autosize=1;strokeColor=none;fillColor=none;fontSize=12;fontStyle=1" vertex="1" parent="1">
          <mxGeometry x="200" y="1314.1999999999998" width="80" height="30" as="geometry" />
        </mxCell>
        <mxCell id="TU8KSX9ye_OXuuE1Akk1-305" value="&lt;u&gt;Main_Census&lt;/u&gt;" style="shape=table;startSize=30;container=1;collapsible=1;childLayout=tableLayout;fixedRows=1;rowLines=0;fontStyle=1;align=center;resizeLast=1;html=1;" vertex="1" parent="1">
          <mxGeometry x="1060" y="1266.05" width="180" height="245" as="geometry" />
        </mxCell>
        <mxCell id="TU8KSX9ye_OXuuE1Akk1-306" value="" style="shape=tableRow;horizontal=0;startSize=0;swimlaneHead=0;swimlaneBody=0;fillColor=none;collapsible=0;dropTarget=0;points=[[0,0.5],[1,0.5]];portConstraint=eastwest;top=0;left=0;right=0;bottom=1;fontStyle=1" vertex="1" parent="TU8KSX9ye_OXuuE1Akk1-305">
          <mxGeometry y="30" width="180" height="30" as="geometry" />
        </mxCell>
        <mxCell id="TU8KSX9ye_OXuuE1Akk1-307" value="PK" style="shape=partialRectangle;connectable=0;fillColor=none;top=0;left=0;bottom=0;right=0;fontStyle=1;overflow=hidden;whiteSpace=wrap;html=1;" vertex="1" parent="TU8KSX9ye_OXuuE1Akk1-306">
          <mxGeometry width="40" height="30" as="geometry">
            <mxRectangle width="40" height="30" as="alternateBounds" />
          </mxGeometry>
        </mxCell>
        <mxCell id="TU8KSX9ye_OXuuE1Akk1-308" value="censusID" style="shape=partialRectangle;connectable=0;fillColor=none;top=0;left=0;bottom=0;right=0;align=left;spacingLeft=6;fontStyle=5;overflow=hidden;whiteSpace=wrap;html=1;" vertex="1" parent="TU8KSX9ye_OXuuE1Akk1-306">
          <mxGeometry x="40" width="140" height="30" as="geometry">
            <mxRectangle width="140" height="30" as="alternateBounds" />
          </mxGeometry>
        </mxCell>
        <mxCell id="TU8KSX9ye_OXuuE1Akk1-309" value="" style="shape=tableRow;horizontal=0;startSize=0;swimlaneHead=0;swimlaneBody=0;fillColor=none;collapsible=0;dropTarget=0;points=[[0,0.5],[1,0.5]];portConstraint=eastwest;top=0;left=0;right=0;bottom=0;fontStyle=1" vertex="1" parent="TU8KSX9ye_OXuuE1Akk1-305">
          <mxGeometry y="60" width="180" height="30" as="geometry" />
        </mxCell>
        <mxCell id="TU8KSX9ye_OXuuE1Akk1-310" value="" style="shape=partialRectangle;connectable=0;fillColor=none;top=0;left=0;bottom=0;right=0;editable=1;overflow=hidden;whiteSpace=wrap;html=1;fontStyle=1" vertex="1" parent="TU8KSX9ye_OXuuE1Akk1-309">
          <mxGeometry width="40" height="30" as="geometry">
            <mxRectangle width="40" height="30" as="alternateBounds" />
          </mxGeometry>
        </mxCell>
        <mxCell id="TU8KSX9ye_OXuuE1Akk1-311" value="Borough" style="shape=partialRectangle;connectable=0;fillColor=none;top=0;left=0;bottom=0;right=0;align=left;spacingLeft=6;overflow=hidden;whiteSpace=wrap;html=1;fontStyle=1" vertex="1" parent="TU8KSX9ye_OXuuE1Akk1-309">
          <mxGeometry x="40" width="140" height="30" as="geometry">
            <mxRectangle width="140" height="30" as="alternateBounds" />
          </mxGeometry>
        </mxCell>
        <mxCell id="TU8KSX9ye_OXuuE1Akk1-312" value="" style="shape=tableRow;horizontal=0;startSize=0;swimlaneHead=0;swimlaneBody=0;fillColor=none;collapsible=0;dropTarget=0;points=[[0,0.5],[1,0.5]];portConstraint=eastwest;top=0;left=0;right=0;bottom=0;fontStyle=1" vertex="1" parent="TU8KSX9ye_OXuuE1Akk1-305">
          <mxGeometry y="90" width="180" height="30" as="geometry" />
        </mxCell>
        <mxCell id="TU8KSX9ye_OXuuE1Akk1-313" value="" style="shape=partialRectangle;connectable=0;fillColor=none;top=0;left=0;bottom=0;right=0;editable=1;overflow=hidden;whiteSpace=wrap;html=1;fontStyle=1" vertex="1" parent="TU8KSX9ye_OXuuE1Akk1-312">
          <mxGeometry width="40" height="30" as="geometry">
            <mxRectangle width="40" height="30" as="alternateBounds" />
          </mxGeometry>
        </mxCell>
        <mxCell id="TU8KSX9ye_OXuuE1Akk1-314" value="Survey (Years)" style="shape=partialRectangle;connectable=0;fillColor=none;top=0;left=0;bottom=0;right=0;align=left;spacingLeft=6;overflow=hidden;whiteSpace=wrap;html=1;fontStyle=1" vertex="1" parent="TU8KSX9ye_OXuuE1Akk1-312">
          <mxGeometry x="40" width="140" height="30" as="geometry">
            <mxRectangle width="140" height="30" as="alternateBounds" />
          </mxGeometry>
        </mxCell>
        <mxCell id="TU8KSX9ye_OXuuE1Akk1-315" value="" style="shape=tableRow;horizontal=0;startSize=0;swimlaneHead=0;swimlaneBody=0;fillColor=none;collapsible=0;dropTarget=0;points=[[0,0.5],[1,0.5]];portConstraint=eastwest;top=0;left=0;right=0;bottom=0;fontStyle=1" vertex="1" parent="TU8KSX9ye_OXuuE1Akk1-305">
          <mxGeometry y="120" width="180" height="30" as="geometry" />
        </mxCell>
        <mxCell id="TU8KSX9ye_OXuuE1Akk1-316" value="" style="shape=partialRectangle;connectable=0;fillColor=none;top=0;left=0;bottom=0;right=0;editable=1;overflow=hidden;whiteSpace=wrap;html=1;fontStyle=1" vertex="1" parent="TU8KSX9ye_OXuuE1Akk1-315">
          <mxGeometry width="40" height="30" as="geometry">
            <mxRectangle width="40" height="30" as="alternateBounds" />
          </mxGeometry>
        </mxCell>
        <mxCell id="TU8KSX9ye_OXuuE1Akk1-317" value="demographicID" style="shape=partialRectangle;connectable=0;fillColor=none;top=0;left=0;bottom=0;right=0;align=left;spacingLeft=6;overflow=hidden;whiteSpace=wrap;html=1;fontStyle=1" vertex="1" parent="TU8KSX9ye_OXuuE1Akk1-315">
          <mxGeometry x="40" width="140" height="30" as="geometry">
            <mxRectangle width="140" height="30" as="alternateBounds" />
          </mxGeometry>
        </mxCell>
        <mxCell id="TU8KSX9ye_OXuuE1Akk1-318" value="&lt;u&gt;Demographic_Census&lt;/u&gt;" style="shape=table;startSize=30;container=1;collapsible=1;childLayout=tableLayout;fixedRows=1;rowLines=0;fontStyle=1;align=center;resizeLast=1;html=1;" vertex="1" parent="1">
          <mxGeometry x="1360" y="1054.6" width="180" height="580" as="geometry" />
        </mxCell>
        <mxCell id="TU8KSX9ye_OXuuE1Akk1-319" value="" style="shape=tableRow;horizontal=0;startSize=0;swimlaneHead=0;swimlaneBody=0;fillColor=none;collapsible=0;dropTarget=0;points=[[0,0.5],[1,0.5]];portConstraint=eastwest;top=0;left=0;right=0;bottom=1;fontStyle=1" vertex="1" parent="TU8KSX9ye_OXuuE1Akk1-318">
          <mxGeometry y="30" width="180" height="30" as="geometry" />
        </mxCell>
        <mxCell id="TU8KSX9ye_OXuuE1Akk1-320" value="PK" style="shape=partialRectangle;connectable=0;fillColor=none;top=0;left=0;bottom=0;right=0;fontStyle=1;overflow=hidden;whiteSpace=wrap;html=1;" vertex="1" parent="TU8KSX9ye_OXuuE1Akk1-319">
          <mxGeometry width="30" height="30" as="geometry">
            <mxRectangle width="30" height="30" as="alternateBounds" />
          </mxGeometry>
        </mxCell>
        <mxCell id="TU8KSX9ye_OXuuE1Akk1-321" value="demographicID" style="shape=partialRectangle;connectable=0;fillColor=none;top=0;left=0;bottom=0;right=0;align=left;spacingLeft=6;fontStyle=5;overflow=hidden;whiteSpace=wrap;html=1;" vertex="1" parent="TU8KSX9ye_OXuuE1Akk1-319">
          <mxGeometry x="30" width="150" height="30" as="geometry">
            <mxRectangle width="150" height="30" as="alternateBounds" />
          </mxGeometry>
        </mxCell>
        <mxCell id="TU8KSX9ye_OXuuE1Akk1-322" value="" style="shape=tableRow;horizontal=0;startSize=0;swimlaneHead=0;swimlaneBody=0;fillColor=none;collapsible=0;dropTarget=0;points=[[0,0.5],[1,0.5]];portConstraint=eastwest;top=0;left=0;right=0;bottom=0;fontStyle=1" vertex="1" parent="TU8KSX9ye_OXuuE1Akk1-318">
          <mxGeometry y="60" width="180" height="30" as="geometry" />
        </mxCell>
        <mxCell id="TU8KSX9ye_OXuuE1Akk1-323" value="" style="shape=partialRectangle;connectable=0;fillColor=none;top=0;left=0;bottom=0;right=0;editable=1;overflow=hidden;whiteSpace=wrap;html=1;fontStyle=1" vertex="1" parent="TU8KSX9ye_OXuuE1Akk1-322">
          <mxGeometry width="30" height="30" as="geometry">
            <mxRectangle width="30" height="30" as="alternateBounds" />
          </mxGeometry>
        </mxCell>
        <mxCell id="TU8KSX9ye_OXuuE1Akk1-324" value="Total Population " style="shape=partialRectangle;connectable=0;fillColor=none;top=0;left=0;bottom=0;right=0;align=left;spacingLeft=6;overflow=hidden;whiteSpace=wrap;html=1;fontStyle=1" vertex="1" parent="TU8KSX9ye_OXuuE1Akk1-322">
          <mxGeometry x="30" width="150" height="30" as="geometry">
            <mxRectangle width="150" height="30" as="alternateBounds" />
          </mxGeometry>
        </mxCell>
        <mxCell id="TU8KSX9ye_OXuuE1Akk1-325" value="" style="shape=tableRow;horizontal=0;startSize=0;swimlaneHead=0;swimlaneBody=0;fillColor=none;collapsible=0;dropTarget=0;points=[[0,0.5],[1,0.5]];portConstraint=eastwest;top=0;left=0;right=0;bottom=0;fontStyle=1" vertex="1" parent="TU8KSX9ye_OXuuE1Akk1-318">
          <mxGeometry y="90" width="180" height="30" as="geometry" />
        </mxCell>
        <mxCell id="TU8KSX9ye_OXuuE1Akk1-326" value="" style="shape=partialRectangle;connectable=0;fillColor=none;top=0;left=0;bottom=0;right=0;editable=1;overflow=hidden;whiteSpace=wrap;html=1;fontStyle=1" vertex="1" parent="TU8KSX9ye_OXuuE1Akk1-325">
          <mxGeometry width="30" height="30" as="geometry">
            <mxRectangle width="30" height="30" as="alternateBounds" />
          </mxGeometry>
        </mxCell>
        <mxCell id="TU8KSX9ye_OXuuE1Akk1-327" value="Race: White " style="shape=partialRectangle;connectable=0;fillColor=none;top=0;left=0;bottom=0;right=0;align=left;spacingLeft=6;overflow=hidden;whiteSpace=wrap;html=1;fontStyle=1" vertex="1" parent="TU8KSX9ye_OXuuE1Akk1-325">
          <mxGeometry x="30" width="150" height="30" as="geometry">
            <mxRectangle width="150" height="30" as="alternateBounds" />
          </mxGeometry>
        </mxCell>
        <mxCell id="TU8KSX9ye_OXuuE1Akk1-328" value="" style="shape=tableRow;horizontal=0;startSize=0;swimlaneHead=0;swimlaneBody=0;fillColor=none;collapsible=0;dropTarget=0;points=[[0,0.5],[1,0.5]];portConstraint=eastwest;top=0;left=0;right=0;bottom=0;fontStyle=1" vertex="1" parent="TU8KSX9ye_OXuuE1Akk1-318">
          <mxGeometry y="120" width="180" height="30" as="geometry" />
        </mxCell>
        <mxCell id="TU8KSX9ye_OXuuE1Akk1-329" value="" style="shape=partialRectangle;connectable=0;fillColor=none;top=0;left=0;bottom=0;right=0;editable=1;overflow=hidden;whiteSpace=wrap;html=1;fontStyle=1" vertex="1" parent="TU8KSX9ye_OXuuE1Akk1-328">
          <mxGeometry width="30" height="30" as="geometry">
            <mxRectangle width="30" height="30" as="alternateBounds" />
          </mxGeometry>
        </mxCell>
        <mxCell id="TU8KSX9ye_OXuuE1Akk1-330" value="Race: Black or African American " style="shape=partialRectangle;connectable=0;fillColor=none;top=0;left=0;bottom=0;right=0;align=left;spacingLeft=6;overflow=hidden;whiteSpace=wrap;html=1;fontStyle=1" vertex="1" parent="TU8KSX9ye_OXuuE1Akk1-328">
          <mxGeometry x="30" width="150" height="30" as="geometry">
            <mxRectangle width="150" height="30" as="alternateBounds" />
          </mxGeometry>
        </mxCell>
        <mxCell id="TU8KSX9ye_OXuuE1Akk1-331" value="&lt;u&gt;Rent_Census&lt;/u&gt;" style="shape=table;startSize=30;container=1;collapsible=1;childLayout=tableLayout;fixedRows=1;rowLines=0;fontStyle=1;align=center;resizeLast=1;html=1;" vertex="1" parent="1">
          <mxGeometry x="765" y="1054.6" width="180" height="336.45" as="geometry" />
        </mxCell>
        <mxCell id="TU8KSX9ye_OXuuE1Akk1-332" value="" style="shape=tableRow;horizontal=0;startSize=0;swimlaneHead=0;swimlaneBody=0;fillColor=none;collapsible=0;dropTarget=0;points=[[0,0.5],[1,0.5]];portConstraint=eastwest;top=0;left=0;right=0;bottom=1;fontStyle=1" vertex="1" parent="TU8KSX9ye_OXuuE1Akk1-331">
          <mxGeometry y="30" width="180" height="30" as="geometry" />
        </mxCell>
        <mxCell id="TU8KSX9ye_OXuuE1Akk1-333" value="PK" style="shape=partialRectangle;connectable=0;fillColor=none;top=0;left=0;bottom=0;right=0;fontStyle=1;overflow=hidden;whiteSpace=wrap;html=1;" vertex="1" parent="TU8KSX9ye_OXuuE1Akk1-332">
          <mxGeometry width="30" height="30" as="geometry">
            <mxRectangle width="30" height="30" as="alternateBounds" />
          </mxGeometry>
        </mxCell>
        <mxCell id="TU8KSX9ye_OXuuE1Akk1-334" value="rentID" style="shape=partialRectangle;connectable=0;fillColor=none;top=0;left=0;bottom=0;right=0;align=left;spacingLeft=6;fontStyle=5;overflow=hidden;whiteSpace=wrap;html=1;" vertex="1" parent="TU8KSX9ye_OXuuE1Akk1-332">
          <mxGeometry x="30" width="150" height="30" as="geometry">
            <mxRectangle width="150" height="30" as="alternateBounds" />
          </mxGeometry>
        </mxCell>
        <mxCell id="TU8KSX9ye_OXuuE1Akk1-335" value="" style="shape=tableRow;horizontal=0;startSize=0;swimlaneHead=0;swimlaneBody=0;fillColor=none;collapsible=0;dropTarget=0;points=[[0,0.5],[1,0.5]];portConstraint=eastwest;top=0;left=0;right=0;bottom=0;fontStyle=1" vertex="1" parent="TU8KSX9ye_OXuuE1Akk1-331">
          <mxGeometry y="60" width="180" height="30" as="geometry" />
        </mxCell>
        <mxCell id="TU8KSX9ye_OXuuE1Akk1-336" value="" style="shape=partialRectangle;connectable=0;fillColor=none;top=0;left=0;bottom=0;right=0;editable=1;overflow=hidden;whiteSpace=wrap;html=1;fontStyle=1" vertex="1" parent="TU8KSX9ye_OXuuE1Akk1-335">
          <mxGeometry width="30" height="30" as="geometry">
            <mxRectangle width="30" height="30" as="alternateBounds" />
          </mxGeometry>
        </mxCell>
        <mxCell id="TU8KSX9ye_OXuuE1Akk1-337" value="Gross Rent: Total Survey Population " style="shape=partialRectangle;connectable=0;fillColor=none;top=0;left=0;bottom=0;right=0;align=left;spacingLeft=6;overflow=hidden;whiteSpace=wrap;html=1;fontStyle=1" vertex="1" parent="TU8KSX9ye_OXuuE1Akk1-335">
          <mxGeometry x="30" width="150" height="30" as="geometry">
            <mxRectangle width="150" height="30" as="alternateBounds" />
          </mxGeometry>
        </mxCell>
        <mxCell id="TU8KSX9ye_OXuuE1Akk1-338" value="" style="shape=tableRow;horizontal=0;startSize=0;swimlaneHead=0;swimlaneBody=0;fillColor=none;collapsible=0;dropTarget=0;points=[[0,0.5],[1,0.5]];portConstraint=eastwest;top=0;left=0;right=0;bottom=0;fontStyle=1" vertex="1" parent="TU8KSX9ye_OXuuE1Akk1-331">
          <mxGeometry y="90" width="180" height="30" as="geometry" />
        </mxCell>
        <mxCell id="TU8KSX9ye_OXuuE1Akk1-339" value="" style="shape=partialRectangle;connectable=0;fillColor=none;top=0;left=0;bottom=0;right=0;editable=1;overflow=hidden;whiteSpace=wrap;html=1;fontStyle=1" vertex="1" parent="TU8KSX9ye_OXuuE1Akk1-338">
          <mxGeometry width="30" height="30" as="geometry">
            <mxRectangle width="30" height="30" as="alternateBounds" />
          </mxGeometry>
        </mxCell>
        <mxCell id="TU8KSX9ye_OXuuE1Akk1-340" value="Rent Cost between $3,500 or More " style="shape=partialRectangle;connectable=0;fillColor=none;top=0;left=0;bottom=0;right=0;align=left;spacingLeft=6;overflow=hidden;whiteSpace=wrap;html=1;fontStyle=1" vertex="1" parent="TU8KSX9ye_OXuuE1Akk1-338">
          <mxGeometry x="30" width="150" height="30" as="geometry">
            <mxRectangle width="150" height="30" as="alternateBounds" />
          </mxGeometry>
        </mxCell>
        <mxCell id="TU8KSX9ye_OXuuE1Akk1-341" value="" style="shape=tableRow;horizontal=0;startSize=0;swimlaneHead=0;swimlaneBody=0;fillColor=none;collapsible=0;dropTarget=0;points=[[0,0.5],[1,0.5]];portConstraint=eastwest;top=0;left=0;right=0;bottom=0;fontStyle=1" vertex="1" parent="TU8KSX9ye_OXuuE1Akk1-331">
          <mxGeometry y="120" width="180" height="30" as="geometry" />
        </mxCell>
        <mxCell id="TU8KSX9ye_OXuuE1Akk1-342" value="" style="shape=partialRectangle;connectable=0;fillColor=none;top=0;left=0;bottom=0;right=0;editable=1;overflow=hidden;whiteSpace=wrap;html=1;fontStyle=1" vertex="1" parent="TU8KSX9ye_OXuuE1Akk1-341">
          <mxGeometry width="30" height="30" as="geometry">
            <mxRectangle width="30" height="30" as="alternateBounds" />
          </mxGeometry>
        </mxCell>
        <mxCell id="TU8KSX9ye_OXuuE1Akk1-343" value="Rent Cost between $3,000 to $3,499 " style="shape=partialRectangle;connectable=0;fillColor=none;top=0;left=0;bottom=0;right=0;align=left;spacingLeft=6;overflow=hidden;whiteSpace=wrap;html=1;fontStyle=1" vertex="1" parent="TU8KSX9ye_OXuuE1Akk1-341">
          <mxGeometry x="30" width="150" height="30" as="geometry">
            <mxRectangle width="150" height="30" as="alternateBounds" />
          </mxGeometry>
        </mxCell>
        <mxCell id="TU8KSX9ye_OXuuE1Akk1-344" value="&lt;u&gt;Mortgage_Census&lt;/u&gt;" style="shape=table;startSize=30;container=1;collapsible=1;childLayout=tableLayout;fixedRows=1;rowLines=0;fontStyle=1;align=center;resizeLast=1;html=1;" vertex="1" parent="1">
          <mxGeometry x="765" y="660" width="180" height="380" as="geometry" />
        </mxCell>
        <mxCell id="TU8KSX9ye_OXuuE1Akk1-345" value="" style="shape=tableRow;horizontal=0;startSize=0;swimlaneHead=0;swimlaneBody=0;fillColor=none;collapsible=0;dropTarget=0;points=[[0,0.5],[1,0.5]];portConstraint=eastwest;top=0;left=0;right=0;bottom=1;fontStyle=1" vertex="1" parent="TU8KSX9ye_OXuuE1Akk1-344">
          <mxGeometry y="30" width="180" height="30" as="geometry" />
        </mxCell>
        <mxCell id="TU8KSX9ye_OXuuE1Akk1-346" value="PK" style="shape=partialRectangle;connectable=0;fillColor=none;top=0;left=0;bottom=0;right=0;fontStyle=1;overflow=hidden;whiteSpace=wrap;html=1;" vertex="1" parent="TU8KSX9ye_OXuuE1Akk1-345">
          <mxGeometry width="30" height="30" as="geometry">
            <mxRectangle width="30" height="30" as="alternateBounds" />
          </mxGeometry>
        </mxCell>
        <mxCell id="TU8KSX9ye_OXuuE1Akk1-347" value="mortgageID" style="shape=partialRectangle;connectable=0;fillColor=none;top=0;left=0;bottom=0;right=0;align=left;spacingLeft=6;fontStyle=5;overflow=hidden;whiteSpace=wrap;html=1;" vertex="1" parent="TU8KSX9ye_OXuuE1Akk1-345">
          <mxGeometry x="30" width="150" height="30" as="geometry">
            <mxRectangle width="150" height="30" as="alternateBounds" />
          </mxGeometry>
        </mxCell>
        <mxCell id="TU8KSX9ye_OXuuE1Akk1-348" value="" style="shape=tableRow;horizontal=0;startSize=0;swimlaneHead=0;swimlaneBody=0;fillColor=none;collapsible=0;dropTarget=0;points=[[0,0.5],[1,0.5]];portConstraint=eastwest;top=0;left=0;right=0;bottom=0;fontStyle=1" vertex="1" parent="TU8KSX9ye_OXuuE1Akk1-344">
          <mxGeometry y="60" width="180" height="30" as="geometry" />
        </mxCell>
        <mxCell id="TU8KSX9ye_OXuuE1Akk1-349" value="" style="shape=partialRectangle;connectable=0;fillColor=none;top=0;left=0;bottom=0;right=0;editable=1;overflow=hidden;whiteSpace=wrap;html=1;fontStyle=1" vertex="1" parent="TU8KSX9ye_OXuuE1Akk1-348">
          <mxGeometry width="30" height="30" as="geometry">
            <mxRectangle width="30" height="30" as="alternateBounds" />
          </mxGeometry>
        </mxCell>
        <mxCell id="TU8KSX9ye_OXuuE1Akk1-350" value="Mortgage Status: Total Survey Population " style="shape=partialRectangle;connectable=0;fillColor=none;top=0;left=0;bottom=0;right=0;align=left;spacingLeft=6;overflow=hidden;whiteSpace=wrap;html=1;fontStyle=1" vertex="1" parent="TU8KSX9ye_OXuuE1Akk1-348">
          <mxGeometry x="30" width="150" height="30" as="geometry">
            <mxRectangle width="150" height="30" as="alternateBounds" />
          </mxGeometry>
        </mxCell>
        <mxCell id="TU8KSX9ye_OXuuE1Akk1-351" value="" style="shape=tableRow;horizontal=0;startSize=0;swimlaneHead=0;swimlaneBody=0;fillColor=none;collapsible=0;dropTarget=0;points=[[0,0.5],[1,0.5]];portConstraint=eastwest;top=0;left=0;right=0;bottom=0;fontStyle=1" vertex="1" parent="TU8KSX9ye_OXuuE1Akk1-344">
          <mxGeometry y="90" width="180" height="30" as="geometry" />
        </mxCell>
        <mxCell id="TU8KSX9ye_OXuuE1Akk1-352" value="" style="shape=partialRectangle;connectable=0;fillColor=none;top=0;left=0;bottom=0;right=0;editable=1;overflow=hidden;whiteSpace=wrap;html=1;fontStyle=1" vertex="1" parent="TU8KSX9ye_OXuuE1Akk1-351">
          <mxGeometry width="30" height="30" as="geometry">
            <mxRectangle width="30" height="30" as="alternateBounds" />
          </mxGeometry>
        </mxCell>
        <mxCell id="TU8KSX9ye_OXuuE1Akk1-353" value="Housing units with a Mortgage " style="shape=partialRectangle;connectable=0;fillColor=none;top=0;left=0;bottom=0;right=0;align=left;spacingLeft=6;overflow=hidden;whiteSpace=wrap;html=1;fontStyle=1" vertex="1" parent="TU8KSX9ye_OXuuE1Akk1-351">
          <mxGeometry x="30" width="150" height="30" as="geometry">
            <mxRectangle width="150" height="30" as="alternateBounds" />
          </mxGeometry>
        </mxCell>
        <mxCell id="TU8KSX9ye_OXuuE1Akk1-354" value="" style="shape=tableRow;horizontal=0;startSize=0;swimlaneHead=0;swimlaneBody=0;fillColor=none;collapsible=0;dropTarget=0;points=[[0,0.5],[1,0.5]];portConstraint=eastwest;top=0;left=0;right=0;bottom=0;fontStyle=1" vertex="1" parent="TU8KSX9ye_OXuuE1Akk1-344">
          <mxGeometry y="120" width="180" height="30" as="geometry" />
        </mxCell>
        <mxCell id="TU8KSX9ye_OXuuE1Akk1-355" value="" style="shape=partialRectangle;connectable=0;fillColor=none;top=0;left=0;bottom=0;right=0;editable=1;overflow=hidden;whiteSpace=wrap;html=1;fontStyle=1" vertex="1" parent="TU8KSX9ye_OXuuE1Akk1-354">
          <mxGeometry width="30" height="30" as="geometry">
            <mxRectangle width="30" height="30" as="alternateBounds" />
          </mxGeometry>
        </mxCell>
        <mxCell id="TU8KSX9ye_OXuuE1Akk1-356" value="Mortgage Cost over $4,000 per Month " style="shape=partialRectangle;connectable=0;fillColor=none;top=0;left=0;bottom=0;right=0;align=left;spacingLeft=6;overflow=hidden;whiteSpace=wrap;html=1;fontStyle=1" vertex="1" parent="TU8KSX9ye_OXuuE1Akk1-354">
          <mxGeometry x="30" width="150" height="30" as="geometry">
            <mxRectangle width="150" height="30" as="alternateBounds" />
          </mxGeometry>
        </mxCell>
        <mxCell id="TU8KSX9ye_OXuuE1Akk1-357" value="housingID" style="shape=partialRectangle;connectable=0;fillColor=none;top=0;left=0;bottom=0;right=0;align=left;spacingLeft=6;overflow=hidden;whiteSpace=wrap;html=1;fontStyle=1" vertex="1" parent="1">
          <mxGeometry x="1100" y="1411.05" width="140" height="40" as="geometry">
            <mxRectangle width="140" height="30" as="alternateBounds" />
          </mxGeometry>
        </mxCell>
        <mxCell id="TU8KSX9ye_OXuuE1Akk1-358" value="&lt;u&gt;Housing_Census&lt;/u&gt;" style="shape=table;startSize=30;container=1;collapsible=1;childLayout=tableLayout;fixedRows=1;rowLines=0;fontStyle=1;align=center;resizeLast=1;html=1;" vertex="1" parent="1">
          <mxGeometry x="765" y="1404.2" width="180" height="288.95" as="geometry" />
        </mxCell>
        <mxCell id="TU8KSX9ye_OXuuE1Akk1-359" value="" style="shape=tableRow;horizontal=0;startSize=0;swimlaneHead=0;swimlaneBody=0;fillColor=none;collapsible=0;dropTarget=0;points=[[0,0.5],[1,0.5]];portConstraint=eastwest;top=0;left=0;right=0;bottom=1;fontStyle=1" vertex="1" parent="TU8KSX9ye_OXuuE1Akk1-358">
          <mxGeometry y="30" width="180" height="30" as="geometry" />
        </mxCell>
        <mxCell id="TU8KSX9ye_OXuuE1Akk1-360" value="PK" style="shape=partialRectangle;connectable=0;fillColor=none;top=0;left=0;bottom=0;right=0;fontStyle=1;overflow=hidden;whiteSpace=wrap;html=1;" vertex="1" parent="TU8KSX9ye_OXuuE1Akk1-359">
          <mxGeometry width="30" height="30" as="geometry">
            <mxRectangle width="30" height="30" as="alternateBounds" />
          </mxGeometry>
        </mxCell>
        <mxCell id="TU8KSX9ye_OXuuE1Akk1-361" value="housingID" style="shape=partialRectangle;connectable=0;fillColor=none;top=0;left=0;bottom=0;right=0;align=left;spacingLeft=6;fontStyle=5;overflow=hidden;whiteSpace=wrap;html=1;" vertex="1" parent="TU8KSX9ye_OXuuE1Akk1-359">
          <mxGeometry x="30" width="150" height="30" as="geometry">
            <mxRectangle width="150" height="30" as="alternateBounds" />
          </mxGeometry>
        </mxCell>
        <mxCell id="TU8KSX9ye_OXuuE1Akk1-362" value="" style="shape=tableRow;horizontal=0;startSize=0;swimlaneHead=0;swimlaneBody=0;fillColor=none;collapsible=0;dropTarget=0;points=[[0,0.5],[1,0.5]];portConstraint=eastwest;top=0;left=0;right=0;bottom=0;fontStyle=1" vertex="1" parent="TU8KSX9ye_OXuuE1Akk1-358">
          <mxGeometry y="60" width="180" height="30" as="geometry" />
        </mxCell>
        <mxCell id="TU8KSX9ye_OXuuE1Akk1-363" value="" style="shape=partialRectangle;connectable=0;fillColor=none;top=0;left=0;bottom=0;right=0;editable=1;overflow=hidden;whiteSpace=wrap;html=1;fontStyle=1" vertex="1" parent="TU8KSX9ye_OXuuE1Akk1-362">
          <mxGeometry width="30" height="30" as="geometry">
            <mxRectangle width="30" height="30" as="alternateBounds" />
          </mxGeometry>
        </mxCell>
        <mxCell id="TU8KSX9ye_OXuuE1Akk1-364" value="Housing Cost: Total Survey Population " style="shape=partialRectangle;connectable=0;fillColor=none;top=0;left=0;bottom=0;right=0;align=left;spacingLeft=6;overflow=hidden;whiteSpace=wrap;html=1;fontStyle=1" vertex="1" parent="TU8KSX9ye_OXuuE1Akk1-362">
          <mxGeometry x="30" width="150" height="30" as="geometry">
            <mxRectangle width="150" height="30" as="alternateBounds" />
          </mxGeometry>
        </mxCell>
        <mxCell id="TU8KSX9ye_OXuuE1Akk1-365" value="" style="shape=tableRow;horizontal=0;startSize=0;swimlaneHead=0;swimlaneBody=0;fillColor=none;collapsible=0;dropTarget=0;points=[[0,0.5],[1,0.5]];portConstraint=eastwest;top=0;left=0;right=0;bottom=0;fontStyle=1" vertex="1" parent="TU8KSX9ye_OXuuE1Akk1-358">
          <mxGeometry y="90" width="180" height="30" as="geometry" />
        </mxCell>
        <mxCell id="TU8KSX9ye_OXuuE1Akk1-366" value="" style="shape=partialRectangle;connectable=0;fillColor=none;top=0;left=0;bottom=0;right=0;editable=1;overflow=hidden;whiteSpace=wrap;html=1;fontStyle=1" vertex="1" parent="TU8KSX9ye_OXuuE1Akk1-365">
          <mxGeometry width="30" height="30" as="geometry">
            <mxRectangle width="30" height="30" as="alternateBounds" />
          </mxGeometry>
        </mxCell>
        <mxCell id="TU8KSX9ye_OXuuE1Akk1-367" value="Housing Cost 30 percent or more of income " style="shape=partialRectangle;connectable=0;fillColor=none;top=0;left=0;bottom=0;right=0;align=left;spacingLeft=6;overflow=hidden;whiteSpace=wrap;html=1;fontStyle=1" vertex="1" parent="TU8KSX9ye_OXuuE1Akk1-365">
          <mxGeometry x="30" width="150" height="30" as="geometry">
            <mxRectangle width="150" height="30" as="alternateBounds" />
          </mxGeometry>
        </mxCell>
        <mxCell id="TU8KSX9ye_OXuuE1Akk1-368" value="" style="shape=tableRow;horizontal=0;startSize=0;swimlaneHead=0;swimlaneBody=0;fillColor=none;collapsible=0;dropTarget=0;points=[[0,0.5],[1,0.5]];portConstraint=eastwest;top=0;left=0;right=0;bottom=0;fontStyle=1" vertex="1" parent="TU8KSX9ye_OXuuE1Akk1-358">
          <mxGeometry y="120" width="180" height="30" as="geometry" />
        </mxCell>
        <mxCell id="TU8KSX9ye_OXuuE1Akk1-369" value="" style="shape=partialRectangle;connectable=0;fillColor=none;top=0;left=0;bottom=0;right=0;editable=1;overflow=hidden;whiteSpace=wrap;html=1;fontStyle=1" vertex="1" parent="TU8KSX9ye_OXuuE1Akk1-368">
          <mxGeometry width="30" height="30" as="geometry">
            <mxRectangle width="30" height="30" as="alternateBounds" />
          </mxGeometry>
        </mxCell>
        <mxCell id="TU8KSX9ye_OXuuE1Akk1-370" value="Median Monthly Housing Cost " style="shape=partialRectangle;connectable=0;fillColor=none;top=0;left=0;bottom=0;right=0;align=left;spacingLeft=6;overflow=hidden;whiteSpace=wrap;html=1;fontStyle=1" vertex="1" parent="TU8KSX9ye_OXuuE1Akk1-368">
          <mxGeometry x="30" width="150" height="30" as="geometry">
            <mxRectangle width="150" height="30" as="alternateBounds" />
          </mxGeometry>
        </mxCell>
        <mxCell id="TU8KSX9ye_OXuuE1Akk1-371" value="Mortgage Cost between $3,500 to $3,999 " style="shape=partialRectangle;connectable=0;fillColor=none;top=0;left=0;bottom=0;right=0;align=left;spacingLeft=6;overflow=hidden;whiteSpace=wrap;html=1;fontStyle=1" vertex="1" parent="1">
          <mxGeometry x="795" y="810" width="150" height="30" as="geometry">
            <mxRectangle width="150" height="30" as="alternateBounds" />
          </mxGeometry>
        </mxCell>
        <mxCell id="TU8KSX9ye_OXuuE1Akk1-372" value="Mortgage Cost between $3,000 to $3,499 " style="shape=partialRectangle;connectable=0;fillColor=none;top=0;left=0;bottom=0;right=0;align=left;spacingLeft=6;overflow=hidden;whiteSpace=wrap;html=1;fontStyle=1" vertex="1" parent="1">
          <mxGeometry x="795" y="840" width="150" height="30" as="geometry">
            <mxRectangle width="150" height="30" as="alternateBounds" />
          </mxGeometry>
        </mxCell>
        <mxCell id="TU8KSX9ye_OXuuE1Akk1-373" value="Mortgage Cost between $2,999 to $2,500 " style="shape=partialRectangle;connectable=0;fillColor=none;top=0;left=0;bottom=0;right=0;align=left;spacingLeft=6;overflow=hidden;whiteSpace=wrap;html=1;fontStyle=1" vertex="1" parent="1">
          <mxGeometry x="795" y="870" width="150" height="30" as="geometry">
            <mxRectangle width="150" height="30" as="alternateBounds" />
          </mxGeometry>
        </mxCell>
        <mxCell id="TU8KSX9ye_OXuuE1Akk1-374" value="Mortgage Cost between $2,000 to $2,499 " style="shape=partialRectangle;connectable=0;fillColor=none;top=0;left=0;bottom=0;right=0;align=left;spacingLeft=6;overflow=hidden;whiteSpace=wrap;html=1;fontStyle=1" vertex="1" parent="1">
          <mxGeometry x="795" y="900" width="150" height="30" as="geometry">
            <mxRectangle width="150" height="30" as="alternateBounds" />
          </mxGeometry>
        </mxCell>
        <mxCell id="TU8KSX9ye_OXuuE1Akk1-375" value="Mortgage Cost between $1,500 to $1,999 " style="shape=partialRectangle;connectable=0;fillColor=none;top=0;left=0;bottom=0;right=0;align=left;spacingLeft=6;overflow=hidden;whiteSpace=wrap;html=1;fontStyle=1" vertex="1" parent="1">
          <mxGeometry x="795" y="930" width="150" height="30" as="geometry">
            <mxRectangle width="150" height="30" as="alternateBounds" />
          </mxGeometry>
        </mxCell>
        <mxCell id="TU8KSX9ye_OXuuE1Akk1-376" value="Mortgage Cost between $1,250 to $1,499 " style="shape=partialRectangle;connectable=0;fillColor=none;top=0;left=0;bottom=0;right=0;align=left;spacingLeft=6;overflow=hidden;whiteSpace=wrap;html=1;fontStyle=1" vertex="1" parent="1">
          <mxGeometry x="795" y="960" width="150" height="30" as="geometry">
            <mxRectangle width="150" height="30" as="alternateBounds" />
          </mxGeometry>
        </mxCell>
        <mxCell id="TU8KSX9ye_OXuuE1Akk1-377" value="Mortgage Cost between $1,000 to $1,249 " style="shape=partialRectangle;connectable=0;fillColor=none;top=0;left=0;bottom=0;right=0;align=left;spacingLeft=6;overflow=hidden;whiteSpace=wrap;html=1;fontStyle=1" vertex="1" parent="1">
          <mxGeometry x="795" y="990" width="150" height="30" as="geometry">
            <mxRectangle width="150" height="30" as="alternateBounds" />
          </mxGeometry>
        </mxCell>
        <mxCell id="TU8KSX9ye_OXuuE1Akk1-378" value="Rent Cost between $2,500 to $2,999 " style="shape=partialRectangle;connectable=0;fillColor=none;top=0;left=0;bottom=0;right=0;align=left;spacingLeft=6;overflow=hidden;whiteSpace=wrap;html=1;fontStyle=1" vertex="1" parent="1">
          <mxGeometry x="795" y="1204.6" width="150" height="30" as="geometry">
            <mxRectangle width="150" height="30" as="alternateBounds" />
          </mxGeometry>
        </mxCell>
        <mxCell id="TU8KSX9ye_OXuuE1Akk1-379" value="Rent Cost between $1,250 to $1,499 " style="shape=partialRectangle;connectable=0;fillColor=none;top=0;left=0;bottom=0;right=0;align=left;spacingLeft=6;overflow=hidden;whiteSpace=wrap;html=1;fontStyle=1" vertex="1" parent="1">
          <mxGeometry x="795" y="1294.6" width="150" height="30" as="geometry">
            <mxRectangle width="150" height="30" as="alternateBounds" />
          </mxGeometry>
        </mxCell>
        <mxCell id="TU8KSX9ye_OXuuE1Akk1-380" value="Rent Cost between $2,000 to $2,499 " style="shape=partialRectangle;connectable=0;fillColor=none;top=0;left=0;bottom=0;right=0;align=left;spacingLeft=6;overflow=hidden;whiteSpace=wrap;html=1;fontStyle=1" vertex="1" parent="1">
          <mxGeometry x="795" y="1234.6" width="150" height="30" as="geometry">
            <mxRectangle width="150" height="30" as="alternateBounds" />
          </mxGeometry>
        </mxCell>
        <mxCell id="TU8KSX9ye_OXuuE1Akk1-381" value="Rent Cost between $1,500 to $1,999 " style="shape=partialRectangle;connectable=0;fillColor=none;top=0;left=0;bottom=0;right=0;align=left;spacingLeft=6;overflow=hidden;whiteSpace=wrap;html=1;fontStyle=1" vertex="1" parent="1">
          <mxGeometry x="795" y="1264.6" width="150" height="30" as="geometry">
            <mxRectangle width="150" height="30" as="alternateBounds" />
          </mxGeometry>
        </mxCell>
        <mxCell id="TU8KSX9ye_OXuuE1Akk1-382" value="Rent Cost between $1,000 to $1,249 " style="shape=partialRectangle;connectable=0;fillColor=none;top=0;left=0;bottom=0;right=0;align=left;spacingLeft=6;overflow=hidden;whiteSpace=wrap;html=1;fontStyle=1" vertex="1" parent="1">
          <mxGeometry x="795" y="1324.6" width="150" height="30" as="geometry">
            <mxRectangle width="150" height="30" as="alternateBounds" />
          </mxGeometry>
        </mxCell>
        <mxCell id="TU8KSX9ye_OXuuE1Akk1-383" value="Rent Cost between $900 to $999 " style="shape=partialRectangle;connectable=0;fillColor=none;top=0;left=0;bottom=0;right=0;align=left;spacingLeft=6;overflow=hidden;whiteSpace=wrap;html=1;fontStyle=1" vertex="1" parent="1">
          <mxGeometry x="795" y="1354.6" width="150" height="30" as="geometry">
            <mxRectangle width="150" height="30" as="alternateBounds" />
          </mxGeometry>
        </mxCell>
        <mxCell id="TU8KSX9ye_OXuuE1Akk1-384" value="Aggregate Value of Home: Owner Age 25 to 34 Years Old " style="shape=partialRectangle;connectable=0;fillColor=none;top=0;left=0;bottom=0;right=0;align=left;spacingLeft=6;overflow=hidden;whiteSpace=wrap;html=1;fontStyle=1" vertex="1" parent="1">
          <mxGeometry x="795" y="1554.2" width="150" height="50" as="geometry">
            <mxRectangle width="150" height="30" as="alternateBounds" />
          </mxGeometry>
        </mxCell>
        <mxCell id="TU8KSX9ye_OXuuE1Akk1-385" value="Aggregate Value of Home: Owner Age 35 to 64 Years Old " style="shape=partialRectangle;connectable=0;fillColor=none;top=0;left=0;bottom=0;right=0;align=left;spacingLeft=6;overflow=hidden;whiteSpace=wrap;html=1;fontStyle=1" vertex="1" parent="1">
          <mxGeometry x="795" y="1594.2" width="150" height="60" as="geometry">
            <mxRectangle width="150" height="30" as="alternateBounds" />
          </mxGeometry>
        </mxCell>
        <mxCell id="TU8KSX9ye_OXuuE1Akk1-386" value="Aggregate Value of Home: Owner Age 65 annd Over " style="shape=partialRectangle;connectable=0;fillColor=none;top=0;left=0;bottom=0;right=0;align=left;spacingLeft=6;overflow=hidden;whiteSpace=wrap;html=1;fontStyle=1" vertex="1" parent="1">
          <mxGeometry x="795" y="1629.2" width="150" height="85" as="geometry">
            <mxRectangle width="150" height="30" as="alternateBounds" />
          </mxGeometry>
        </mxCell>
        <mxCell id="TU8KSX9ye_OXuuE1Akk1-387" value="Race: American Indian and Alaska Native " style="shape=partialRectangle;connectable=0;fillColor=none;top=0;left=0;bottom=0;right=0;align=left;spacingLeft=6;overflow=hidden;whiteSpace=wrap;html=1;fontStyle=1" vertex="1" parent="1">
          <mxGeometry x="1390" y="1204.6" width="150" height="30" as="geometry">
            <mxRectangle width="150" height="30" as="alternateBounds" />
          </mxGeometry>
        </mxCell>
        <mxCell id="TU8KSX9ye_OXuuE1Akk1-388" value="Race: Asian " style="shape=partialRectangle;connectable=0;fillColor=none;top=0;left=0;bottom=0;right=0;align=left;spacingLeft=6;overflow=hidden;whiteSpace=wrap;html=1;fontStyle=1" vertex="1" parent="1">
          <mxGeometry x="1390" y="1234.6" width="150" height="30" as="geometry">
            <mxRectangle width="150" height="30" as="alternateBounds" />
          </mxGeometry>
        </mxCell>
        <mxCell id="TU8KSX9ye_OXuuE1Akk1-389" value="Race: Native Hawaiian and Other Pacific Islander " style="shape=partialRectangle;connectable=0;fillColor=none;top=0;left=0;bottom=0;right=0;align=left;spacingLeft=6;overflow=hidden;whiteSpace=wrap;html=1;fontStyle=1" vertex="1" parent="1">
          <mxGeometry x="1390" y="1264.6" width="150" height="30" as="geometry">
            <mxRectangle width="150" height="30" as="alternateBounds" />
          </mxGeometry>
        </mxCell>
        <mxCell id="TU8KSX9ye_OXuuE1Akk1-390" value="Race: Other Race Alone " style="shape=partialRectangle;connectable=0;fillColor=none;top=0;left=0;bottom=0;right=0;align=left;spacingLeft=6;overflow=hidden;whiteSpace=wrap;html=1;fontStyle=1" vertex="1" parent="1">
          <mxGeometry x="1390" y="1294.6" width="150" height="30" as="geometry">
            <mxRectangle width="150" height="30" as="alternateBounds" />
          </mxGeometry>
        </mxCell>
        <mxCell id="TU8KSX9ye_OXuuE1Akk1-391" value="Race: Two or More Races " style="shape=partialRectangle;connectable=0;fillColor=none;top=0;left=0;bottom=0;right=0;align=left;spacingLeft=6;overflow=hidden;whiteSpace=wrap;html=1;fontStyle=1" vertex="1" parent="1">
          <mxGeometry x="1390" y="1324.6" width="150" height="30" as="geometry">
            <mxRectangle width="150" height="30" as="alternateBounds" />
          </mxGeometry>
        </mxCell>
        <mxCell id="TU8KSX9ye_OXuuE1Akk1-392" value="Median Age of Total Population " style="shape=partialRectangle;connectable=0;fillColor=none;top=0;left=0;bottom=0;right=0;align=left;spacingLeft=6;overflow=hidden;whiteSpace=wrap;html=1;fontStyle=1" vertex="1" parent="1">
          <mxGeometry x="1390" y="1354.6" width="150" height="30" as="geometry">
            <mxRectangle width="150" height="30" as="alternateBounds" />
          </mxGeometry>
        </mxCell>
        <mxCell id="TU8KSX9ye_OXuuE1Akk1-393" value="Median Age: White " style="shape=partialRectangle;connectable=0;fillColor=none;top=0;left=0;bottom=0;right=0;align=left;spacingLeft=6;overflow=hidden;whiteSpace=wrap;html=1;fontStyle=1" vertex="1" parent="1">
          <mxGeometry x="1390" y="1384.6" width="150" height="30" as="geometry">
            <mxRectangle width="150" height="30" as="alternateBounds" />
          </mxGeometry>
        </mxCell>
        <mxCell id="TU8KSX9ye_OXuuE1Akk1-394" value="Median Age: Black or African American " style="shape=partialRectangle;connectable=0;fillColor=none;top=0;left=0;bottom=0;right=0;align=left;spacingLeft=6;overflow=hidden;whiteSpace=wrap;html=1;fontStyle=1" vertex="1" parent="1">
          <mxGeometry x="1390" y="1414.6" width="150" height="30" as="geometry">
            <mxRectangle width="150" height="30" as="alternateBounds" />
          </mxGeometry>
        </mxCell>
        <mxCell id="TU8KSX9ye_OXuuE1Akk1-395" value="Median Age: American Indian and Alaska Native " style="shape=partialRectangle;connectable=0;fillColor=none;top=0;left=0;bottom=0;right=0;align=left;spacingLeft=6;overflow=hidden;whiteSpace=wrap;html=1;fontStyle=1" vertex="1" parent="1">
          <mxGeometry x="1390" y="1444.6" width="150" height="30" as="geometry">
            <mxRectangle width="150" height="30" as="alternateBounds" />
          </mxGeometry>
        </mxCell>
        <mxCell id="TU8KSX9ye_OXuuE1Akk1-396" value="Median Age: Asian " style="shape=partialRectangle;connectable=0;fillColor=none;top=0;left=0;bottom=0;right=0;align=left;spacingLeft=6;overflow=hidden;whiteSpace=wrap;html=1;fontStyle=1" vertex="1" parent="1">
          <mxGeometry x="1390" y="1474.6" width="150" height="30" as="geometry">
            <mxRectangle width="150" height="30" as="alternateBounds" />
          </mxGeometry>
        </mxCell>
        <mxCell id="TU8KSX9ye_OXuuE1Akk1-397" value="Median Age: Native Hawaiian and Other Pacific Islander " style="shape=partialRectangle;connectable=0;fillColor=none;top=0;left=0;bottom=0;right=0;align=left;spacingLeft=6;overflow=hidden;whiteSpace=wrap;html=1;fontStyle=1" vertex="1" parent="1">
          <mxGeometry x="1390" y="1494.6" width="150" height="60" as="geometry">
            <mxRectangle width="150" height="30" as="alternateBounds" />
          </mxGeometry>
        </mxCell>
        <mxCell id="TU8KSX9ye_OXuuE1Akk1-398" value="Median Age: Other Race Alone " style="shape=partialRectangle;connectable=0;fillColor=none;top=0;left=0;bottom=0;right=0;align=left;spacingLeft=6;overflow=hidden;whiteSpace=wrap;html=1;fontStyle=1" vertex="1" parent="1">
          <mxGeometry x="1390" y="1554.6" width="150" height="30" as="geometry">
            <mxRectangle width="150" height="30" as="alternateBounds" />
          </mxGeometry>
        </mxCell>
        <mxCell id="TU8KSX9ye_OXuuE1Akk1-399" value="Median Age: Two or More Races " style="shape=partialRectangle;connectable=0;fillColor=none;top=0;left=0;bottom=0;right=0;align=left;spacingLeft=6;overflow=hidden;whiteSpace=wrap;html=1;fontStyle=1" vertex="1" parent="1">
          <mxGeometry x="1390" y="1594.6" width="150" height="30" as="geometry">
            <mxRectangle width="150" height="30" as="alternateBounds" />
          </mxGeometry>
        </mxCell>
        <mxCell id="TU8KSX9ye_OXuuE1Akk1-400" value="" style="endArrow=none;html=1;rounded=0;fontStyle=1" edge="1" parent="1">
          <mxGeometry relative="1" as="geometry">
            <mxPoint x="1100" y="1401.05" as="sourcePoint" />
            <mxPoint x="1100" y="1511.05" as="targetPoint" />
          </mxGeometry>
        </mxCell>
        <mxCell id="TU8KSX9ye_OXuuE1Akk1-401" value="rentID" style="shape=partialRectangle;connectable=0;fillColor=none;top=0;left=0;bottom=0;right=0;align=left;spacingLeft=6;overflow=hidden;whiteSpace=wrap;html=1;fontStyle=1" vertex="1" parent="1">
          <mxGeometry x="1100" y="1451.05" width="140" height="30" as="geometry">
            <mxRectangle width="140" height="30" as="alternateBounds" />
          </mxGeometry>
        </mxCell>
        <mxCell id="TU8KSX9ye_OXuuE1Akk1-402" value="mortgageID" style="shape=partialRectangle;connectable=0;fillColor=none;top=0;left=0;bottom=0;right=0;align=left;spacingLeft=6;fontStyle=1;overflow=hidden;whiteSpace=wrap;html=1;" vertex="1" parent="1">
          <mxGeometry x="1100" y="1481.05" width="150" height="30" as="geometry">
            <mxRectangle width="150" height="30" as="alternateBounds" />
          </mxGeometry>
        </mxCell>
        <mxCell id="TU8KSX9ye_OXuuE1Akk1-403" value="" style="endArrow=none;html=1;rounded=0;fontStyle=1" edge="1" parent="1">
          <mxGeometry relative="1" as="geometry">
            <mxPoint x="795" y="780" as="sourcePoint" />
            <mxPoint x="795" y="1040" as="targetPoint" />
          </mxGeometry>
        </mxCell>
        <mxCell id="TU8KSX9ye_OXuuE1Akk1-404" value="" style="endArrow=none;html=1;rounded=0;fontStyle=1" edge="1" parent="1">
          <mxGeometry relative="1" as="geometry">
            <mxPoint x="795" y="1134.6" as="sourcePoint" />
            <mxPoint x="795" y="1391.0500000000002" as="targetPoint" />
          </mxGeometry>
        </mxCell>
        <mxCell id="TU8KSX9ye_OXuuE1Akk1-405" value="" style="endArrow=none;html=1;rounded=0;fontStyle=1" edge="1" parent="1">
          <mxGeometry relative="1" as="geometry">
            <mxPoint x="795" y="1494.2" as="sourcePoint" />
            <mxPoint x="795" y="1693.15" as="targetPoint" />
          </mxGeometry>
        </mxCell>
        <mxCell id="TU8KSX9ye_OXuuE1Akk1-406" value="" style="endArrow=none;html=1;rounded=0;fontStyle=1" edge="1" parent="1">
          <mxGeometry relative="1" as="geometry">
            <mxPoint x="1390" y="1184.6" as="sourcePoint" />
            <mxPoint x="1390" y="1634.6" as="targetPoint" />
          </mxGeometry>
        </mxCell>
        <mxCell id="TU8KSX9ye_OXuuE1Akk1-407" value="" style="endArrow=none;html=1;rounded=0;fontStyle=1" edge="1" parent="1">
          <mxGeometry relative="1" as="geometry">
            <mxPoint x="765" y="1040" as="sourcePoint" />
            <mxPoint x="945" y="1041" as="targetPoint" />
          </mxGeometry>
        </mxCell>
        <mxCell id="TU8KSX9ye_OXuuE1Akk1-408" value="" style="endArrow=none;html=1;rounded=0;fontStyle=1" edge="1" parent="1">
          <mxGeometry relative="1" as="geometry">
            <mxPoint x="1360" y="1634.6" as="sourcePoint" />
            <mxPoint x="1540" y="1635.6" as="targetPoint" />
          </mxGeometry>
        </mxCell>
        <mxCell id="TU8KSX9ye_OXuuE1Akk1-409" value="" style="line;strokeWidth=1;rotatable=0;dashed=0;labelPosition=right;align=left;verticalAlign=middle;spacingTop=0;spacingLeft=6;points=[];portConstraint=eastwest;fontStyle=1" vertex="1" parent="1">
          <mxGeometry x="1060" y="1381.05" width="180" height="10" as="geometry" />
        </mxCell>
        <mxCell id="TU8KSX9ye_OXuuE1Akk1-410" value="FK" style="text;html=1;align=center;verticalAlign=middle;resizable=0;points=[];autosize=1;strokeColor=none;fillColor=none;fontStyle=1" vertex="1" parent="1">
          <mxGeometry x="1060" y="1481.05" width="40" height="30" as="geometry" />
        </mxCell>
        <mxCell id="TU8KSX9ye_OXuuE1Akk1-411" value="FK" style="text;html=1;align=center;verticalAlign=middle;resizable=0;points=[];autosize=1;strokeColor=none;fillColor=none;fontStyle=1" vertex="1" parent="1">
          <mxGeometry x="1060" y="1416.05" width="40" height="30" as="geometry" />
        </mxCell>
        <mxCell id="TU8KSX9ye_OXuuE1Akk1-412" value="FK" style="text;html=1;align=center;verticalAlign=middle;resizable=0;points=[];autosize=1;strokeColor=none;fillColor=none;fontStyle=1" vertex="1" parent="1">
          <mxGeometry x="1060" y="1451.05" width="40" height="30" as="geometry" />
        </mxCell>
        <mxCell id="TU8KSX9ye_OXuuE1Akk1-413" value="FK" style="text;html=1;align=center;verticalAlign=middle;resizable=0;points=[];autosize=1;strokeColor=none;fillColor=none;fontStyle=1" vertex="1" parent="1">
          <mxGeometry x="1060" y="1386.05" width="40" height="30" as="geometry" />
        </mxCell>
        <mxCell id="TU8KSX9ye_OXuuE1Akk1-414" value="" style="edgeStyle=entityRelationEdgeStyle;fontSize=12;html=1;endArrow=ERoneToMany;rounded=0;entryX=-0.075;entryY=0.467;entryDx=0;entryDy=0;entryPerimeter=0;exitX=1;exitY=0.5;exitDx=0;exitDy=0;fontStyle=1" edge="1" parent="1" source="TU8KSX9ye_OXuuE1Akk1-345" target="TU8KSX9ye_OXuuE1Akk1-410">
          <mxGeometry width="100" height="100" relative="1" as="geometry">
            <mxPoint x="610" y="1271.0500000000002" as="sourcePoint" />
            <mxPoint x="710" y="1506.05" as="targetPoint" />
          </mxGeometry>
        </mxCell>
        <mxCell id="TU8KSX9ye_OXuuE1Akk1-415" value="" style="edgeStyle=entityRelationEdgeStyle;fontSize=12;html=1;endArrow=ERoneToMany;rounded=0;entryX=-0.075;entryY=0.533;entryDx=0;entryDy=0;entryPerimeter=0;exitX=1;exitY=0.5;exitDx=0;exitDy=0;fontStyle=1" edge="1" parent="1" source="TU8KSX9ye_OXuuE1Akk1-332" target="TU8KSX9ye_OXuuE1Akk1-412">
          <mxGeometry width="100" height="100" relative="1" as="geometry">
            <mxPoint x="210" y="1976.05" as="sourcePoint" />
            <mxPoint x="610" y="1336.05" as="targetPoint" />
          </mxGeometry>
        </mxCell>
        <mxCell id="TU8KSX9ye_OXuuE1Akk1-416" value="" style="edgeStyle=entityRelationEdgeStyle;fontSize=12;html=1;endArrow=ERoneToMany;rounded=0;entryX=1;entryY=0.5;entryDx=0;entryDy=0;fontStyle=1" edge="1" parent="1" source="TU8KSX9ye_OXuuE1Akk1-319" target="TU8KSX9ye_OXuuE1Akk1-315">
          <mxGeometry width="100" height="100" relative="1" as="geometry">
            <mxPoint x="810" y="1436.05" as="sourcePoint" />
            <mxPoint x="950" y="1156.05" as="targetPoint" />
          </mxGeometry>
        </mxCell>
        <mxCell id="TU8KSX9ye_OXuuE1Akk1-417" value="" style="edgeStyle=entityRelationEdgeStyle;fontSize=12;html=1;endArrow=ERoneToMany;rounded=0;exitX=1;exitY=0.5;exitDx=0;exitDy=0;fontStyle=1" edge="1" parent="1" source="TU8KSX9ye_OXuuE1Akk1-359">
          <mxGeometry width="100" height="100" relative="1" as="geometry">
            <mxPoint x="435" y="1806.05" as="sourcePoint" />
            <mxPoint x="1060" y="1431" as="targetPoint" />
          </mxGeometry>
        </mxCell>
        <mxCell id="TU8KSX9ye_OXuuE1Akk1-441" value="&lt;u&gt;Machine_Learning&lt;/u&gt;" style="shape=table;startSize=30;container=1;collapsible=1;childLayout=tableLayout;fixedRows=1;rowLines=0;fontStyle=1;align=center;resizeLast=1;html=1;" vertex="1" parent="1">
          <mxGeometry x="190" y="616" width="180" height="520" as="geometry" />
        </mxCell>
        <mxCell id="TU8KSX9ye_OXuuE1Akk1-442" value="" style="shape=tableRow;horizontal=0;startSize=0;swimlaneHead=0;swimlaneBody=0;fillColor=none;collapsible=0;dropTarget=0;points=[[0,0.5],[1,0.5]];portConstraint=eastwest;top=0;left=0;right=0;bottom=1;fontStyle=1" vertex="1" parent="TU8KSX9ye_OXuuE1Akk1-441">
          <mxGeometry y="30" width="180" height="30" as="geometry" />
        </mxCell>
        <mxCell id="TU8KSX9ye_OXuuE1Akk1-443" value="PK" style="shape=partialRectangle;connectable=0;fillColor=none;top=0;left=0;bottom=0;right=0;fontStyle=1;overflow=hidden;whiteSpace=wrap;html=1;" vertex="1" parent="TU8KSX9ye_OXuuE1Akk1-442">
          <mxGeometry width="30" height="30" as="geometry">
            <mxRectangle width="30" height="30" as="alternateBounds" />
          </mxGeometry>
        </mxCell>
        <mxCell id="TU8KSX9ye_OXuuE1Akk1-444" value="denormalized" style="shape=partialRectangle;connectable=0;fillColor=none;top=0;left=0;bottom=0;right=0;align=left;spacingLeft=6;fontStyle=5;overflow=hidden;whiteSpace=wrap;html=1;" vertex="1" parent="TU8KSX9ye_OXuuE1Akk1-442">
          <mxGeometry x="30" width="150" height="30" as="geometry">
            <mxRectangle width="150" height="30" as="alternateBounds" />
          </mxGeometry>
        </mxCell>
        <mxCell id="TU8KSX9ye_OXuuE1Akk1-445" value="" style="shape=tableRow;horizontal=0;startSize=0;swimlaneHead=0;swimlaneBody=0;fillColor=none;collapsible=0;dropTarget=0;points=[[0,0.5],[1,0.5]];portConstraint=eastwest;top=0;left=0;right=0;bottom=0;fontStyle=1" vertex="1" parent="TU8KSX9ye_OXuuE1Akk1-441">
          <mxGeometry y="60" width="180" height="30" as="geometry" />
        </mxCell>
        <mxCell id="TU8KSX9ye_OXuuE1Akk1-446" value="" style="shape=partialRectangle;connectable=0;fillColor=none;top=0;left=0;bottom=0;right=0;editable=1;overflow=hidden;whiteSpace=wrap;html=1;fontStyle=1" vertex="1" parent="TU8KSX9ye_OXuuE1Akk1-445">
          <mxGeometry width="30" height="30" as="geometry">
            <mxRectangle width="30" height="30" as="alternateBounds" />
          </mxGeometry>
        </mxCell>
        <mxCell id="TU8KSX9ye_OXuuE1Akk1-447" value="Building class category" style="shape=partialRectangle;connectable=0;fillColor=none;top=0;left=0;bottom=0;right=0;align=left;spacingLeft=6;overflow=hidden;whiteSpace=wrap;html=1;fontStyle=1" vertex="1" parent="TU8KSX9ye_OXuuE1Akk1-445">
          <mxGeometry x="30" width="150" height="30" as="geometry">
            <mxRectangle width="150" height="30" as="alternateBounds" />
          </mxGeometry>
        </mxCell>
        <mxCell id="TU8KSX9ye_OXuuE1Akk1-448" value="" style="shape=tableRow;horizontal=0;startSize=0;swimlaneHead=0;swimlaneBody=0;fillColor=none;collapsible=0;dropTarget=0;points=[[0,0.5],[1,0.5]];portConstraint=eastwest;top=0;left=0;right=0;bottom=0;fontStyle=1" vertex="1" parent="TU8KSX9ye_OXuuE1Akk1-441">
          <mxGeometry y="90" width="180" height="30" as="geometry" />
        </mxCell>
        <mxCell id="TU8KSX9ye_OXuuE1Akk1-449" value="" style="shape=partialRectangle;connectable=0;fillColor=none;top=0;left=0;bottom=0;right=0;editable=1;overflow=hidden;whiteSpace=wrap;html=1;fontStyle=1" vertex="1" parent="TU8KSX9ye_OXuuE1Akk1-448">
          <mxGeometry width="30" height="30" as="geometry">
            <mxRectangle width="30" height="30" as="alternateBounds" />
          </mxGeometry>
        </mxCell>
        <mxCell id="TU8KSX9ye_OXuuE1Akk1-450" value="Residential Units" style="shape=partialRectangle;connectable=0;fillColor=none;top=0;left=0;bottom=0;right=0;align=left;spacingLeft=6;overflow=hidden;whiteSpace=wrap;html=1;fontStyle=1" vertex="1" parent="TU8KSX9ye_OXuuE1Akk1-448">
          <mxGeometry x="30" width="150" height="30" as="geometry">
            <mxRectangle width="150" height="30" as="alternateBounds" />
          </mxGeometry>
        </mxCell>
        <mxCell id="TU8KSX9ye_OXuuE1Akk1-451" value="" style="shape=tableRow;horizontal=0;startSize=0;swimlaneHead=0;swimlaneBody=0;fillColor=none;collapsible=0;dropTarget=0;points=[[0,0.5],[1,0.5]];portConstraint=eastwest;top=0;left=0;right=0;bottom=0;fontStyle=1" vertex="1" parent="TU8KSX9ye_OXuuE1Akk1-441">
          <mxGeometry y="120" width="180" height="30" as="geometry" />
        </mxCell>
        <mxCell id="TU8KSX9ye_OXuuE1Akk1-452" value="" style="shape=partialRectangle;connectable=0;fillColor=none;top=0;left=0;bottom=0;right=0;editable=1;overflow=hidden;whiteSpace=wrap;html=1;fontStyle=1" vertex="1" parent="TU8KSX9ye_OXuuE1Akk1-451">
          <mxGeometry width="30" height="30" as="geometry">
            <mxRectangle width="30" height="30" as="alternateBounds" />
          </mxGeometry>
        </mxCell>
        <mxCell id="TU8KSX9ye_OXuuE1Akk1-453" value="Commercial Units" style="shape=partialRectangle;connectable=0;fillColor=none;top=0;left=0;bottom=0;right=0;align=left;spacingLeft=6;overflow=hidden;whiteSpace=wrap;html=1;fontStyle=1" vertex="1" parent="TU8KSX9ye_OXuuE1Akk1-451">
          <mxGeometry x="30" width="150" height="30" as="geometry">
            <mxRectangle width="150" height="30" as="alternateBounds" />
          </mxGeometry>
        </mxCell>
        <mxCell id="TU8KSX9ye_OXuuE1Akk1-454" value="Total Units" style="text;html=1;align=center;verticalAlign=middle;resizable=0;points=[];autosize=1;strokeColor=none;fillColor=none;fontStyle=1" vertex="1" parent="1">
          <mxGeometry x="220" y="766" width="80" height="30" as="geometry" />
        </mxCell>
        <mxCell id="TU8KSX9ye_OXuuE1Akk1-455" value="Gross Square Feet" style="text;html=1;align=center;verticalAlign=middle;resizable=0;points=[];autosize=1;strokeColor=none;fillColor=none;fontStyle=1" vertex="1" parent="1">
          <mxGeometry x="220" y="796" width="130" height="30" as="geometry" />
        </mxCell>
        <mxCell id="TU8KSX9ye_OXuuE1Akk1-456" value="Land Square Feet&lt;br&gt;&#39;&lt;br&gt;Year Built&lt;br&gt;&lt;br&gt;Sale Price&lt;br&gt;&lt;br&gt;Sale Date" style="text;html=1;align=center;verticalAlign=middle;resizable=0;points=[];autosize=1;strokeColor=none;fillColor=none;fontStyle=1" vertex="1" parent="1">
          <mxGeometry x="225" y="826" width="120" height="110" as="geometry" />
        </mxCell>
        <mxCell id="TU8KSX9ye_OXuuE1Akk1-457" value="Borough&lt;br&gt;&lt;br&gt;Neighborhood&lt;br&gt;&lt;br&gt;Block&lt;br&gt;&lt;br&gt;Zip Code&lt;br&gt;&lt;br&gt;Lot" style="text;html=1;align=center;verticalAlign=middle;resizable=0;points=[];autosize=1;strokeColor=none;fillColor=none;fontStyle=1" vertex="1" parent="1">
          <mxGeometry x="230" y="936" width="110" height="140" as="geometry" />
        </mxCell>
        <mxCell id="TU8KSX9ye_OXuuE1Akk1-458" value="Tax Class At Present&lt;br&gt;&lt;br&gt;Tax Class At Sale" style="text;html=1;align=center;verticalAlign=middle;resizable=0;points=[];autosize=1;strokeColor=none;fillColor=none;fontStyle=1" vertex="1" parent="1">
          <mxGeometry x="215" y="1076" width="140" height="60" as="geometry" />
        </mxCell>
        <mxCell id="TU8KSX9ye_OXuuE1Akk1-464" value="" style="line;strokeWidth=1;rotatable=0;dashed=0;labelPosition=right;align=left;verticalAlign=middle;spacingTop=0;spacingLeft=6;points=[];portConstraint=eastwest;fontSize=12;fontStyle=1" vertex="1" parent="1">
          <mxGeometry x="175" y="1369.1999999999998" width="220" height="10" as="geometry" />
        </mxCell>
        <mxCell id="TU8KSX9ye_OXuuE1Akk1-467" value="" style="line;strokeWidth=1;rotatable=0;dashed=0;labelPosition=right;align=left;verticalAlign=middle;spacingTop=0;spacingLeft=6;points=[];portConstraint=eastwest;flipV=0;flipH=1;direction=south;fontSize=12;fontStyle=1" vertex="1" parent="1">
          <mxGeometry x="200" y="1299.1999999999998" width="10" height="205.4" as="geometry" />
        </mxCell>
        <mxCell id="TU8KSX9ye_OXuuE1Akk1-470" value="" style="endArrow=none;html=1;rounded=0;fontStyle=1;fontSize=12;" edge="1" parent="1">
          <mxGeometry relative="1" as="geometry">
            <mxPoint x="-150" y="1129" as="sourcePoint" />
            <mxPoint x="-150" y="1269" as="targetPoint" />
          </mxGeometry>
        </mxCell>
        <mxCell id="TU8KSX9ye_OXuuE1Akk1-471" value="" style="endArrow=none;html=1;rounded=0;fontStyle=1;" edge="1" parent="1">
          <mxGeometry relative="1" as="geometry">
            <mxPoint x="220" y="719.55" as="sourcePoint" />
            <mxPoint x="220" y="1134.9499999999998" as="targetPoint" />
          </mxGeometry>
        </mxCell>
        <mxCell id="TU8KSX9ye_OXuuE1Akk1-474" value="" style="edgeStyle=entityRelationEdgeStyle;fontSize=12;html=1;endArrow=ERoneToMany;rounded=0;exitX=1;exitY=0.5;exitDx=0;exitDy=0;entryX=0;entryY=0.75;entryDx=0;entryDy=0;" edge="1" parent="1" source="TU8KSX9ye_OXuuE1Akk1-248" target="TU8KSX9ye_OXuuE1Akk1-276">
          <mxGeometry width="100" height="100" relative="1" as="geometry">
            <mxPoint x="50" y="1090" as="sourcePoint" />
            <mxPoint x="150" y="990" as="targetPoint" />
          </mxGeometry>
        </mxCell>
        <mxCell id="TU8KSX9ye_OXuuE1Akk1-475" value="" style="edgeStyle=entityRelationEdgeStyle;fontSize=12;html=1;endArrow=ERoneToMany;rounded=0;exitX=0;exitY=0.5;exitDx=0;exitDy=0;entryX=1.007;entryY=0.853;entryDx=0;entryDy=0;entryPerimeter=0;" edge="1" parent="1" source="TU8KSX9ye_OXuuE1Akk1-222" target="TU8KSX9ye_OXuuE1Akk1-296">
          <mxGeometry width="100" height="100" relative="1" as="geometry">
            <mxPoint x="460" y="1329.6" as="sourcePoint" />
            <mxPoint x="480" y="1482" as="targetPoint" />
          </mxGeometry>
        </mxCell>
        <mxCell id="TU8KSX9ye_OXuuE1Akk1-477" value="" style="edgeStyle=entityRelationEdgeStyle;fontSize=12;html=1;endArrow=ERoneToMany;rounded=0;exitX=0;exitY=0.5;exitDx=0;exitDy=0;entryX=1.019;entryY=0.613;entryDx=0;entryDy=0;entryPerimeter=0;" edge="1" parent="1" source="TU8KSX9ye_OXuuE1Akk1-264" target="TU8KSX9ye_OXuuE1Akk1-296">
          <mxGeometry width="100" height="100" relative="1" as="geometry">
            <mxPoint x="375" y="1604.6" as="sourcePoint" />
            <mxPoint x="475" y="1477" as="targetPoint" />
          </mxGeometry>
        </mxCell>
        <mxCell id="TU8KSX9ye_OXuuE1Akk1-478" value="" style="edgeStyle=entityRelationEdgeStyle;fontSize=12;html=1;endArrow=ERoneToMany;rounded=0;exitX=0;exitY=0.5;exitDx=0;exitDy=0;entryX=1.007;entryY=0.142;entryDx=0;entryDy=0;entryPerimeter=0;" edge="1" parent="1" source="TU8KSX9ye_OXuuE1Akk1-235" target="TU8KSX9ye_OXuuE1Akk1-296">
          <mxGeometry width="100" height="100" relative="1" as="geometry">
            <mxPoint x="350" y="1120" as="sourcePoint" />
            <mxPoint x="440" y="1290" as="targetPoint" />
          </mxGeometry>
        </mxCell>
      </root>
    </mxGraphModel>
  </diagram>
</mxfile>
